<svg width="29" height="29" viewBox="0 0 29 29" fill="none" xmlns="http://www.w3.org/2000/svg">
<path d="M14.5 12.0833H14.5121" stroke="white" stroke-width="2" stroke-linecap="round" stroke-linejoin="round"/>
<path d="M14.5 16.9167H14.5121" stroke="white" stroke-width="2" stroke-linecap="round" stroke-linejoin="round"/>
<path d="M14.5 7.25H14.5121" stroke="white" stroke-width="2" stroke-linecap="round" stroke-linejoin="round"/>
<path d="M19.3335 12.0833H19.3456" stroke="white" stroke-width="2" stroke-linecap="round" stroke-linejoin="round"/>
<path d="M19.3335 16.9167H19.3456" stroke="white" stroke-width="2" stroke-linecap="round" stroke-linejoin="round"/>
<path d="M19.3335 7.25H19.3456" stroke="white" stroke-width="2" stroke-linecap="round" stroke-linejoin="round"/>
<path d="M9.6665 12.0833H9.67859" stroke="white" stroke-width="2" stroke-linecap="round" stroke-linejoin="round"/>
<path d="M9.6665 16.9167H9.67859" stroke="white" stroke-width="2" stroke-linecap="round" stroke-linejoin="round"/>
<path d="M9.6665 7.25H9.67859" stroke="white" stroke-width="2" stroke-linecap="round" stroke-linejoin="round"/>
<path d="M10.875 26.5833V22.9583C10.875 22.6379 11.0023 22.3305 11.2289 22.1039C11.4555 21.8773 11.7629 21.75 12.0833 21.75H16.9167C17.2371 21.75 17.5445 21.8773 17.7711 22.1039C17.9977 22.3305 18.125 22.6379 18.125 22.9583V26.5833" stroke="white" stroke-width="2" stroke-linecap="round" stroke-linejoin="round"/>
<path d="M21.7502 2.41675H7.25016C5.91547 2.41675 4.8335 3.49873 4.8335 4.83341V24.1667C4.8335 25.5014 5.91547 26.5834 7.25016 26.5834H21.7502C23.0849 26.5834 24.1668 25.5014 24.1668 24.1667V4.83341C24.1668 3.49873 23.0849 2.41675 21.7502 2.41675Z" stroke="white" stroke-width="2" stroke-linecap="round" stroke-linejoin="round"/>
</svg>
