<svg width="29" height="29" viewBox="0 0 29 29" fill="none" xmlns="http://www.w3.org/2000/svg">
<path d="M14.8322 2.12756C14.492 1.95748 14.0916 1.95748 13.7514 2.12756L1.66806 8.16923C1.16683 8.41985 0.903686 8.98221 1.03244 9.52762C1.16119 10.073 1.64805 10.4583 2.20845 10.4583H26.3751C26.9356 10.4583 27.4224 10.073 27.5511 9.52762C27.6799 8.98221 27.4167 8.41985 26.9155 8.16923L14.8322 2.12756Z" stroke="white" stroke-width="2" stroke-linecap="round"/>
<path d="M5.83301 22V10.459M22.7497 22V10.459" stroke="white" stroke-width="2" stroke-linecap="round"/>
<path d="M12 18.5V15" stroke="white" stroke-width="2" stroke-linecap="round"/>
<path d="M16.5 18.5V15" stroke="white" stroke-width="2" stroke-linecap="round"/>
<path d="M2.22728 23C1.54947 23 1 23.8954 1 25C1 26.1046 1.54947 27 2.22728 27H26.7727C27.4506 27 28 26.1046 28 25C28 23.8954 27.4506 23 26.7727 23H14.5H2.22728Z" stroke="white" stroke-width="2" stroke-linecap="round"/>
</svg>
