<svg width="29" height="29" viewBox="0 0 29 29" fill="none" xmlns="http://www.w3.org/2000/svg">
<path d="M8.03538 23.8436L4.69094 17.4249L4.15398 16.3951C4.07392 16.2413 3.93839 16.1279 3.77199 16.0758C3.70736 16.055 3.64143 16.0449 3.57487 16.0449C3.47021 16.0449 3.36983 16.0701 3.27578 16.1188L1.34932 17.123C1.19547 17.203 1.0823 17.3386 1.03021 17.505C0.977639 17.6704 0.99301 17.847 1.07307 18.0008L5.49002 26.4776C5.57008 26.6314 5.70562 26.7447 5.87154 26.7968C5.93665 26.8175 6.12499 26.8264 6.12499 26.8264L6.06984 26.8287C6.17498 26.8287 6.27536 26.8036 6.36893 26.7549L8.29538 25.7507C8.44924 25.6706 8.56241 25.5351 8.6145 25.3687C8.66707 25.2032 8.6517 25.0267 8.57163 24.8728L8.03538 23.8436ZM4.69094 17.4249L8.77912 15.2945C9.08973 15.1324 9.39309 15.0572 9.73457 15.0572C9.76833 15.0572 9.80298 15.0581 9.83819 15.0596L15.6609 15.3113C16.2532 15.3369 16.8009 15.5931 17.2042 16.0325C17.6079 16.4723 17.8157 17.0404 17.7901 17.6323C17.7862 17.7263 17.7756 17.8213 17.7597 17.9149L17.6822 18.362L24.7437 14.6815C25.064 14.5146 25.4079 14.4302 25.7653 14.4302C25.993 14.4302 26.2201 14.4654 26.441 14.5349C27.0097 14.7138 27.4741 15.102 27.7481 15.6277C28.022 16.1539 28.0742 16.7564 27.8943 17.3246C27.7154 17.8937 27.3271 18.3577 26.8013 18.6321L15.9454 24.2897C15.5967 24.471 15.219 24.5594 14.7912 24.5594C14.4154 24.5594 14.0474 24.4918 13.7059 24.4185L9.39685 23.4939C9.23093 23.4582 9.11531 23.4433 9.00968 23.4433C8.87077 23.4433 8.74922 23.4712 8.63828 23.5291L8.03538 23.8436" stroke="white" stroke-width="2" stroke-miterlimit="10"/>
<path d="M5.37451 12.1504H24.3889M6.51537 12.1504C6.58579 10.155 7.09049 8.4907 7.88393 7.16439C8.7877 5.65263 10.0671 4.5728 11.5061 3.92725C12.5976 3.43663 13.7831 3.1925 14.9709 3.1925M23.4288 12.1504C23.3583 10.1527 22.856 8.4907 22.0602 7.16439C21.1564 5.65497 19.8771 4.57515 18.4357 3.92725L18.4287 3.9249C17.8888 3.68311 17.3254 3.50001 16.7503 3.37794C16.1657 3.25353 15.5695 3.1925 14.9709 3.1925M14.9709 3.1925V1M10.1965 8.5C10.4617 8.04694 10.7739 7.64083 11.1307 7.27698C11.4852 6.91547 11.8843 6.59856 12.3209 6.32156" stroke="white" stroke-width="2" stroke-linecap="round"/>
</svg>
