<svg width="25" height="25" viewBox="0 0 25 25" fill="none" xmlns="http://www.w3.org/2000/svg">
<g clip-path="url(#clip0_1166_37403)">
<path d="M10.2896 13.0686C10.8766 13.6533 11.6714 13.9816 12.5 13.9816C13.3286 13.9816 14.1234 13.6533 14.7104 13.0686L24.7719 3.00609C24.5402 2.4269 24.1406 1.93028 23.6243 1.58016C23.108 1.23004 22.4988 1.04244 21.875 1.0415H3.125C2.50121 1.04244 1.89197 1.23004 1.3757 1.58016C0.859434 1.93028 0.459761 2.4269 0.228127 3.00609L10.2896 13.0686Z" fill="white"/>
<path d="M16.1833 14.5415C15.2056 15.5168 13.881 16.0645 12.5 16.0645C11.119 16.0645 9.7944 15.5168 8.81667 14.5415L0 5.729V22.5H25V5.729L16.1833 14.5415Z" fill="white"/>
</g>
<defs>
<clipPath id="clip0_1166_37403">
<rect width="25" height="25" fill="white"/>
</clipPath>
</defs>
</svg>
