<svg width="32" height="32" viewBox="0 0 32 32" fill="none" xmlns="http://www.w3.org/2000/svg">
<path d="M26 24.6831H27.7039C29.0688 24.6831 30.1793 23.5726 30.1793 22.2075V9.97205C30.1793 8.60695 29.0688 7.49646 27.7039 7.49646H4.47541C3.11049 7.49646 2 8.60695 2 9.97205V22.2075C2 23.5726 3.11049 24.6831 4.47541 24.6831H6.5" stroke="#E31E26" stroke-width="2" stroke-linecap="round"/>
<path d="M6.61328 7.5V4.47541C6.61328 3.11049 7.72354 2 9.08865 2H23.1665C24.5317 2 25.6422 3.1103 25.6422 4.47541V7.5M14.4961 23.5H18.3747M9.10502 30C7.74011 30 6.62958 28.8895 6.62958 27.5244L6.62721 18.303C14.2667 18.303 17.9358 18.303 25.5752 18.303V27.5244C25.5752 28.8895 24.4648 30 23.0996 30H9.10502Z" stroke="#E31E26" stroke-width="2" stroke-linecap="round"/>
</svg>
