<svg width="150" height="150" viewBox="0 0 150 150" fill="none" xmlns="http://www.w3.org/2000/svg">
<path d="M93.75 134.497V84.4973C93.75 82.8397 93.0915 81.25 91.9194 80.0779C90.7473 78.9058 89.1576 78.2473 87.5 78.2473H62.5C60.8424 78.2473 59.2527 78.9058 58.0806 80.0779C56.9085 81.25 56.25 82.8397 56.25 84.4973V134.497" stroke="white" stroke-width="2" stroke-linecap="round" stroke-linejoin="round"/>
<path d="M18.75 65.751C18.7496 63.9327 19.1458 62.1362 19.9112 60.4868C20.6765 58.8374 21.7925 57.3748 23.1813 56.201L66.9312 18.701C69.1874 16.7942 72.046 15.748 75 15.748C77.954 15.748 80.8126 16.7942 83.0688 18.701L126.819 56.201C128.208 57.3748 129.323 58.8374 130.089 60.4868C130.854 62.1362 131.25 63.9327 131.25 65.751V122.001C131.25 125.316 129.933 128.496 127.589 130.84C125.245 133.184 122.065 134.501 118.75 134.501H31.25C27.9348 134.501 24.7554 133.184 22.4112 130.84C20.067 128.496 18.75 125.316 18.75 122.001V65.751Z" stroke="white" stroke-width="2" stroke-linecap="round" stroke-linejoin="round"/>
</svg>
