<svg width="130" height="123" viewBox="0 0 130 123" fill="none" xmlns="http://www.w3.org/2000/svg">
<path d="M77.4189 121.997V102.892C77.4189 99.5139 76.077 96.2743 73.6884 93.8857C71.2999 91.4972 68.0603 90.1553 64.6823 90.1553C61.3044 90.1553 58.0648 91.4972 55.6763 93.8857C53.2877 96.2743 51.9458 99.5139 51.9458 102.892V121.997" stroke="white" stroke-width="2" stroke-linecap="round" stroke-linejoin="round"/>
<path d="M102.892 19.6812V122" stroke="white" stroke-width="2" stroke-linecap="round" stroke-linejoin="round"/>
<path d="M13.7358 26.479L58.9888 2.34327C60.7566 1.45989 62.7058 1 64.682 1C66.6583 1 68.6074 1.45989 70.3753 2.34327L115.628 26.479" stroke="white" stroke-width="2" stroke-linecap="round" stroke-linejoin="round"/>
<path d="M26.4731 58.313L4.05677 71.9857C3.12352 72.5538 2.35214 73.3525 1.8168 74.305C1.28146 75.2574 1.00018 76.3316 1 77.4242V109.259C1 112.637 2.34188 115.877 4.73045 118.265C7.11901 120.654 10.3586 121.996 13.7365 121.996H115.629C119.007 121.996 122.246 120.654 124.635 118.265C127.024 115.877 128.365 112.637 128.365 109.259V77.4178C128.364 76.3263 128.082 75.2534 127.547 74.3022C127.012 73.3509 126.241 72.5533 125.309 71.9857L102.892 58.313" stroke="white" stroke-width="2" stroke-linecap="round" stroke-linejoin="round"/>
<path d="M26.4729 19.6812V122" stroke="white" stroke-width="2" stroke-linecap="round" stroke-linejoin="round"/>
<path d="M64.6823 58.3154C71.7165 58.3154 77.4189 52.613 77.4189 45.5788C77.4189 38.5446 71.7165 32.8423 64.6823 32.8423C57.6481 32.8423 51.9458 38.5446 51.9458 45.5788C51.9458 52.613 57.6481 58.3154 64.6823 58.3154Z" stroke="white" stroke-width="2" stroke-linecap="round" stroke-linejoin="round"/>
</svg>
