<svg width="139" height="138" viewBox="0 0 139 138" fill="none" xmlns="http://www.w3.org/2000/svg">
  <style>
    :root { --stroke-color: #1a1a1a; }
    @media (prefers-color-scheme: dark) { :root { --stroke-color: #ffffff; } }
    @keyframes draw {
      to { stroke-dashoffset: 0; }
    }
    path {
      stroke-dasharray: 1;
      stroke-dashoffset: 1;
      animation: draw 0.8s ease forwards;
    }
    .p1 { animation-delay: 0s; }
    .p2 { animation-delay: 0.3s; }
    .p3 { animation-delay: 0.9s; }
    .p4 { animation-delay: 0.15s; }
    .p5 { animation-delay: 0.45s; }
    .p6 { animation-delay: 1.2s; }
    @media (prefers-reduced-motion: reduce) {
      path { animation-duration: 0.01s; }
    }
  </style>
  <path class="p1" pathLength="1" d="M68.9966 7.79974V1" stroke="var(--stroke-color)" stroke-width="2" stroke-linecap="round" stroke-linejoin="round"/>
  <path class="p2" pathLength="1" d="M92.116 105.721L113.875 86.6819C115.17 85.4317 116.698 84.4489 118.373 83.7894C120.048 83.1299 121.836 82.8067 123.635 82.8383C125.435 82.8699 127.21 83.2556 128.861 83.9734C130.511 84.6912 132.004 85.7271 133.254 87.0219C134.505 88.3166 135.487 89.845 136.147 91.5196C136.806 93.1942 137.13 94.9824 137.098 96.7819C137.066 98.5814 136.681 100.357 135.963 102.008C135.245 103.658 134.209 105.151 132.914 106.401L108.435 128.84C103.676 134.28 96.8758 137 89.3961 137H62.1971C54.7174 137 47.9177 134.28 43.1578 128.84L34.3046 118.885C33.6672 118.168 32.885 117.593 32.0095 117.199C31.1341 116.805 30.1851 116.601 29.2252 116.601H21.3987" stroke="var(--stroke-color)" stroke-width="2" stroke-linecap="round" stroke-linejoin="round"/>
  <path class="p3" pathLength="1" d="M1 82.5945H82.5969C86.2037 82.5945 89.6628 84.0273 92.2132 86.5777C94.7636 89.1281 96.1964 92.5872 96.1964 96.194C96.1964 99.8008 94.7636 103.26 92.2132 105.81C89.6628 108.361 86.2037 109.793 82.5969 109.793H68.9974" stroke="var(--stroke-color)" stroke-width="2" stroke-linecap="round" stroke-linejoin="round"/>
  <path class="p4" pathLength="1" d="M14.5989 55.3994H123.395" stroke="var(--stroke-color)" stroke-width="2" stroke-linecap="round" stroke-linejoin="round"/>
  <path class="p5" pathLength="1" d="M21.3987 55.3992C21.3987 42.7754 26.4135 30.6686 35.3399 21.7422C44.2663 12.8158 56.373 7.80103 68.9969 7.80103C81.6207 7.80103 93.7275 12.8158 102.654 21.7422C111.58 30.6686 116.595 42.7754 116.595 55.3992" stroke="var(--stroke-color)" stroke-width="2" stroke-linecap="round" stroke-linejoin="round"/>
  <path class="p6" pathLength="1" d="M21.3992 82.5945V123.393C21.3992 125.196 20.6828 126.926 19.4076 128.201C18.1324 129.476 16.4029 130.193 14.5995 130.193H1" stroke="var(--stroke-color)" stroke-width="2" stroke-linecap="round" stroke-linejoin="round"/>
</svg>
