<svg width="302" height="132" viewBox="0 0 302 132" fill="none" xmlns="http://www.w3.org/2000/svg">
<g clip-path="url(#clip0_4017_241)">
<mask id="mask0_4017_241" style="mask-type:luminance" maskUnits="userSpaceOnUse" x="76" y="34" width="150" height="98">
<path d="M226 34H76V132H226V34Z" fill="white"/>
</mask>
<g mask="url(#mask0_4017_241)">
<path d="M129.663 40.1491L116.41 39.0691L118.57 36.4728L130.388 37.3238L129.663 40.1491Z" fill="#005C9F"/>
<path d="M107.523 49.7483L126.558 52.0667L124.309 60.7365L101.283 57.2411L107.523 49.7483Z" fill="#005C9F"/>
<path d="M116.957 39.0153L105.942 42.9015L100.607 40.3923L111.443 37.1399L116.957 39.0153Z" fill="#005C9F"/>
<path d="M125.746 52.2052L136.235 45.5577L147.223 49.2846L137.906 57.9171L125.746 52.2052Z" fill="#005C9F"/>
<path d="M106.223 42.6433L108.015 50.0316L94.5566 52.014L95.6814 43.8577L106.223 42.6433Z" fill="#005C9F"/>
<path d="M136.238 45.8695L129.176 40.0043L137.097 39.0928L145.642 44.4844L136.238 45.8695Z" fill="#005C9F"/>
<path d="M130.783 35.829L119.727 35.0874L120.633 34L131.084 34.6561L130.783 35.829Z" fill="#1AA9C1"/>
<path d="M95.6161 64.0493L122.202 68.8429L119.564 78.9858L88.7363 72.3152L95.6161 64.0493Z" fill="#1AA9C1"/>
<path d="M108.344 36.0912L97.6738 39.0151L95.3203 37.9069L105.825 35.2368L108.344 36.0912Z" fill="#1AA9C1"/>
<path d="M147.908 62.6143L155.823 52.2051L164.85 55.2675L158.902 67.7829L147.908 62.6143Z" fill="#1AA9C1"/>
<path d="M88.4199 44.6913L85.0821 53.4092L76 54.7497L81.5675 45.4793L88.4199 44.6913Z" fill="#1AA9C1"/>
<path d="M151.236 43.6617L141.871 38.5421L145.949 38.0726L155.962 42.9608L151.236 43.6617Z" fill="#1AA9C1"/>
<path d="M132.631 130.932H131.666L131.127 129.81H128.521L127.982 130.932H127.037L129.174 126.493H130.487L132.631 130.932ZM129.808 127.134L128.87 129.081H130.778L129.847 127.134H129.808Z" fill="#0000FF"/>
<path d="M139.561 128.853C139.561 130.311 138.901 130.932 137.227 130.932H134.773V126.493H137.215C138.889 126.493 139.561 127.115 139.561 128.58V128.853ZM135.629 127.223V130.203H137.1C138.394 130.203 138.686 129.728 138.686 128.764V128.668C138.686 127.692 138.394 127.223 137.1 127.223H135.629Z" fill="#0000FF"/>
<path d="M141.254 130.932H140.398V126.493H143.309C143.885 126.493 144.304 126.601 144.564 126.81C144.831 127.019 144.964 127.381 144.964 127.907V128.072C144.964 129.004 144.494 129.455 143.309 129.455H141.254V130.932ZM141.254 127.216V128.731H143.156C143.917 128.731 144.101 128.529 144.101 128.009V127.939C144.101 127.406 143.899 127.216 143.15 127.216H141.254Z" fill="#0000FF"/>
<path d="M153.062 130.932H151.901L150.64 127.533L149.371 130.932H148.166L146.822 126.494H147.76L148.801 130.057H148.845L150.158 126.494H151.146L152.465 130.057H152.504L153.537 126.494H154.406L153.062 130.932Z" fill="#0000FF"/>
<path d="M157.108 130.996C155.435 130.996 154.75 130.374 154.75 128.916V128.516C154.75 127.051 155.435 126.43 157.108 126.43H157.483C159.151 126.43 159.848 127.051 159.848 128.516V128.916C159.848 130.374 159.151 130.996 157.483 130.996L157.108 130.996ZM157.412 130.254C158.7 130.24 158.966 129.791 158.966 128.82V128.605C158.966 127.635 158.7 127.184 157.412 127.172H157.184C155.891 127.184 155.624 127.635 155.624 128.605V128.82C155.624 129.791 155.891 130.24 157.184 130.254H157.412Z" fill="#0000FF"/>
<path d="M161.534 130.932H160.678V126.493H163.651C164.799 126.493 165.243 126.81 165.243 127.628V127.793C165.243 128.459 164.996 128.731 164.444 128.802V128.833C164.977 128.922 165.243 129.074 165.243 129.841V130.932H164.381V129.949C164.381 129.378 164.203 129.251 163.385 129.251H161.534V130.932ZM161.534 127.223V128.522H163.5C164.178 128.522 164.381 128.371 164.381 127.895V127.857C164.381 127.356 164.159 127.223 163.373 127.223H161.534Z" fill="#0000FF"/>
<path d="M169.886 130.932H166.119V126.493H166.976V130.177H169.886V130.932Z" fill="#0000FF"/>
<path d="M175.339 128.853C175.339 130.311 174.678 130.932 173.005 130.932H170.551V126.493H172.992C174.666 126.493 175.339 127.115 175.339 128.58V128.853ZM171.407 127.223V130.203H172.878C174.172 130.203 174.464 129.728 174.464 128.764V128.668C174.464 127.692 174.172 127.223 172.878 127.223H171.407Z" fill="#0000FF"/>
<path d="M179.912 130.996C178.264 130.996 177.617 130.374 177.617 128.916V128.51C177.617 127.052 178.264 126.43 179.912 126.43H180.331C181.022 126.43 181.542 126.544 181.891 126.779C182.239 127.013 182.468 127.388 182.569 127.908H181.688C181.53 127.394 181.143 127.172 180.223 127.172H180.02C178.765 127.172 178.492 127.628 178.492 128.605V128.82C178.492 129.797 178.765 130.253 180.02 130.253H180.224C181.143 130.253 181.53 130.032 181.688 129.519H182.569C182.468 130.038 182.24 130.412 181.891 130.647C181.541 130.881 181.022 130.996 180.331 130.996H179.912Z" fill="#0000FF"/>
<path d="M184.94 130.995C183.754 130.995 183.139 130.514 183.139 129.34V129.162C183.139 127.989 183.76 127.507 184.946 127.507H185.168C186.354 127.507 186.962 127.989 186.962 129.162V129.34C186.962 130.514 186.347 130.995 185.161 130.995H184.94ZM186.176 129.308V129.194C186.176 128.325 185.764 128.179 185.053 128.179C184.344 128.179 183.931 128.325 183.931 129.194V129.308C183.931 130.177 184.344 130.323 185.053 130.323C185.764 130.323 186.176 130.177 186.176 129.308Z" fill="#0000FF"/>
<path d="M193.381 130.932H192.589V128.979C192.589 128.3 192.246 128.186 191.789 128.186C191.225 128.186 190.87 128.395 190.87 129.124V130.932H190.078V128.979C190.078 128.3 189.748 128.186 189.278 128.186C188.714 128.186 188.359 128.395 188.359 129.124V130.932H187.566V127.571H188.359V128.135H188.39C188.549 127.749 188.879 127.507 189.52 127.507C190.121 127.507 190.572 127.666 190.769 128.154H190.801C190.971 127.749 191.339 127.507 192.017 127.507C192.829 127.507 193.381 127.799 193.381 128.776V130.932Z" fill="#0000FF"/>
<path d="M194.035 127.571H194.821V128.103H194.846C195.017 127.73 195.36 127.507 196.096 127.507H196.19C197.167 127.507 197.858 127.882 197.858 129.137V129.359C197.858 130.621 197.167 130.995 196.19 130.995H196.096C195.36 130.995 195.017 130.773 194.846 130.399H194.821V132.01H194.035V127.571ZM194.821 129.188V129.308C194.821 130.177 195.22 130.323 195.944 130.323C196.672 130.323 197.065 130.177 197.065 129.308V129.194C197.065 128.325 196.672 128.179 195.944 128.179C195.22 128.179 194.821 128.332 194.821 129.188Z" fill="#0000FF"/>
<path d="M201.903 130.932H201.116V130.392H201.091C200.933 130.754 200.552 130.996 199.734 130.996C198.828 130.996 198.326 130.646 198.326 129.955V129.917C198.326 129.283 198.688 128.953 199.474 128.922L201.111 128.852V128.788C201.111 128.205 200.793 128.085 200.172 128.085C199.633 128.085 199.38 128.212 199.258 128.541H198.46C198.618 127.85 199.1 127.507 200.165 127.507H200.273C201.389 127.507 201.903 127.831 201.903 128.852L201.903 130.932ZM199.125 129.924C199.125 130.298 199.429 130.443 199.963 130.443C200.698 130.443 201.111 130.139 201.111 129.6V129.378L199.734 129.435C199.31 129.454 199.125 129.581 199.125 129.891V129.924Z" fill="#0000FF"/>
<path d="M205.982 130.932H205.195V128.979C205.195 128.3 204.827 128.186 204.327 128.186C204.022 128.186 203.781 128.249 203.603 128.383C203.432 128.509 203.343 128.757 203.343 129.117V130.932H202.551V127.571H203.343V128.141H203.374C203.546 127.768 203.889 127.507 204.574 127.507C205.398 127.507 205.982 127.793 205.982 128.82V130.932Z" fill="#0000FF"/>
<path d="M208.066 132.01H207.229L207.781 130.92L206.24 127.571H207.09L208.187 130.02H208.224L209.29 127.571H210.102L208.066 132.01Z" fill="#0000FF"/>
<path d="M186.528 79.7218L186.826 78.3581H169.719L169.05 81.1452H180.08C179.259 82.0427 164.459 98.3266 164.459 98.3266L164.121 99.8535H182.751L183.353 97.2206C184.463 99.2006 186.396 100.35 188.876 100.35C192.256 100.35 194.574 98.4236 195.844 97.1046C195.618 98.1241 195.222 99.8535 195.222 99.8535H199.216L204.145 78.4518L203.748 78.3863C201.97 78.0968 200.29 77.8239 198.25 77.8239C191.624 77.8239 187.805 80.839 185.773 83.3673C183.213 86.5451 182.301 90.2971 182.301 92.7441C182.301 94.3656 182.623 95.7856 183.204 96.9451H170.828C171.649 96.0486 186.528 79.7218 186.528 79.7218ZM197.262 80.7347C198.043 80.7373 198.822 80.803 199.593 80.9312C199.464 81.4953 196.809 92.9735 196.791 93.0535C196.672 93.2455 195.657 94.4826 195.379 94.7656C193.694 96.4876 191.987 97.3551 190.316 97.3551C188.005 97.3551 186.569 95.5725 186.569 92.704C186.569 89.5105 189.105 80.7347 197.262 80.7347Z" fill="#0000FF"/>
<path d="M159.611 99.8535C159.611 99.8535 163.869 81.4902 163.967 81.0655H167.997L168.621 78.358H164.581C165.181 75.3934 166.079 71.9005 171.468 72.015L171.697 72.0224L172.1 70.3012L171.84 70.229C171.052 70.0026 170.077 69.7223 168.719 69.7223C164.405 69.7223 162.526 72.6736 162.055 73.5752C161.464 74.6229 161.115 75.892 160.482 78.358H157.472L156.849 81.0655H159.853C159.695 81.7307 155.533 99.8535 155.533 99.8535H159.611Z" fill="#0000FF"/>
<path d="M150.032 77.8239C143.405 77.8239 139.587 80.839 137.554 83.3673C134.991 86.545 134.082 90.297 134.082 92.744C134.082 97.364 136.663 100.349 140.657 100.349C144.034 100.349 146.353 98.4234 147.627 97.1044C147.397 98.1239 147.006 99.8534 147.006 99.8534H150.998L155.927 78.4517L155.527 78.3862C153.749 78.0967 152.072 77.8239 150.032 77.8239ZM148.575 93.0534C148.451 93.2454 147.442 94.4825 147.159 94.7655C145.471 96.4875 143.769 97.355 142.093 97.355C139.784 97.355 138.352 95.5724 138.352 92.7039C138.352 89.5104 140.884 80.7346 149.045 80.7346C149.825 80.7377 150.604 80.8035 151.374 80.9311C151.243 81.4952 148.59 92.9744 148.575 93.0534Z" fill="#0000FF"/>
<path d="M132.121 70.1148L125.236 97.782C124.43 100.924 123.324 105.228 118.78 105.228C115.82 105.228 114.626 103.491 113.908 102.45L113.71 102.168L111.754 102.99L111.882 103.365C112.386 104.836 113.726 108.753 119.272 108.753C127.345 108.753 128.934 101.879 129.887 97.773L136.781 70.1147H132.121V70.1148Z" fill="#0000FF"/>
<path d="M171.461 116.427L171.691 115.47L171.608 115.381L170.402 115.385L170.256 115.475L170.021 116.433L170.128 116.539L171.321 116.535L171.461 116.427Z" fill="#0000FF"/>
<path d="M165.748 122.667H167.195L169.102 115.034L167.598 115.243L165.748 122.667Z" fill="#0000FF"/>
<path d="M189.777 120.037C189.92 119.431 190.168 118.407 189.592 117.626C189.091 116.954 188.247 116.879 187.772 116.879C185.809 116.879 184.445 118.199 184.04 119.82C183.616 121.518 184.321 122.893 186.311 122.893C188.214 122.893 188.942 121.756 189.33 121.152L189.016 120.98C188.515 121.466 187.989 121.974 186.985 121.974C185.275 121.974 185.472 120.449 185.522 120.037H189.777ZM187.51 117.787C188.589 117.787 188.482 118.699 188.422 119.196H185.765C186.042 118.643 186.471 117.787 187.51 117.787Z" fill="#0000FF"/>
<path d="M168.447 122.667H169.888L171.269 117.129H169.832L168.447 122.667Z" fill="#0000FF"/>
<path d="M180.892 117.129L179.514 122.667H180.96L182.031 118.373C182.321 118.211 182.699 117.995 183.228 117.995C183.627 117.995 183.879 118.124 184.117 118.254L184.43 117C184.297 116.977 184.162 116.966 184.027 116.966C183.043 116.966 182.455 117.54 182.169 117.821L182.342 117.129H180.892Z" fill="#0000FF"/>
<path d="M151.926 120.037C152.066 119.431 152.311 118.407 151.738 117.626C151.231 116.954 150.39 116.879 149.912 116.879C147.956 116.879 146.589 118.199 146.184 119.82C145.762 121.518 146.467 122.893 148.459 122.893C150.36 122.893 151.084 121.756 151.476 121.152L151.162 120.98C150.665 121.466 150.136 121.974 149.128 121.974C147.421 121.974 147.618 120.449 147.666 120.037H151.926ZM149.656 117.787C150.736 117.787 150.629 118.699 150.569 119.196H147.911C148.188 118.643 148.615 117.787 149.656 117.787Z" fill="#0000FF"/>
<path d="M138.867 120.037C139.008 119.431 139.25 118.407 138.68 117.626C138.175 116.954 137.33 116.879 136.851 116.879C134.893 116.879 133.53 118.199 133.124 119.82C132.7 121.518 133.407 122.893 135.397 122.893C137.301 122.893 138.026 121.756 138.414 121.152L138.1 120.98C137.602 121.466 137.072 121.974 136.069 121.974C134.359 121.974 134.556 120.449 134.604 120.037H138.867ZM136.594 117.787C137.674 117.787 137.567 118.699 137.51 119.196H134.848C135.125 118.643 135.555 117.787 136.594 117.787Z" fill="#0000FF"/>
<path d="M154.083 115.242L152.234 122.666H153.681L155.583 115.033L154.083 115.242Z" fill="#0000FF"/>
<path d="M163.144 120.98L163.477 122.667H165.121L163.519 115.034L162.841 115.243L157.465 122.667H158.809L159.984 120.98H163.144ZM162.41 117.499L162.925 119.975H160.688L162.41 117.499Z" fill="#0000FF"/>
<path d="M141.024 115.242L139.172 122.667H140.622L140.764 122.091C140.89 122.32 141.226 122.914 142.171 122.914C143.252 122.914 144.834 122.072 145.392 119.844C145.818 118.125 145.245 116.903 143.766 116.903C142.719 116.903 142.131 117.476 141.844 117.757L142.525 115.033L141.024 115.242ZM143.017 117.787C143.569 117.787 143.844 118.102 143.954 118.545C144.058 118.979 143.965 119.474 143.879 119.834C143.426 121.65 142.488 122.029 141.928 122.029C141.31 122.029 141.081 121.64 140.941 121.391L141.66 118.512C141.66 118.504 142.181 117.787 143.017 117.787Z" fill="#0000FF"/>
<path d="M176.239 115.243L174.389 122.667H175.925L176.778 119.229H179.568L179.836 118.156H177.046L177.566 116.071H180.787L181.054 115.022H176.459L176.239 115.243Z" fill="#0000FF"/>
<path d="M209.288 122.893C211.32 122.893 212.587 121.412 212.972 119.866C213.477 117.856 212.299 116.879 210.825 116.903C209.566 116.924 207.787 117.723 207.239 119.922C206.792 121.715 207.602 122.893 209.288 122.893ZM208.772 119.877C209.073 118.676 209.739 117.787 210.625 117.787C211.565 117.787 211.731 118.72 211.428 119.952C211.143 121.085 210.476 122.016 209.572 122.016C208.674 122.016 208.465 121.131 208.772 119.877Z" fill="#0000FF"/>
<path d="M225.826 120.037C225.967 119.431 226.211 118.407 225.638 117.626C225.134 116.954 224.29 116.879 223.813 116.879C221.858 116.879 220.492 118.199 220.089 119.82C219.666 121.518 220.369 122.893 222.359 122.893C224.26 122.893 224.988 121.756 225.375 121.152L225.062 120.98C224.564 121.466 224.036 121.974 223.034 121.974C221.324 121.974 221.518 120.449 221.568 120.037H225.826ZM223.555 117.787C224.636 117.787 224.528 118.699 224.469 119.196H221.81C222.091 118.643 222.518 117.787 223.555 117.787Z" fill="#0000FF"/>
<path d="M128.921 122.893C129.627 122.9 130.314 122.668 130.872 122.234C131.561 121.683 131.776 121.077 131.97 120.288L133.28 115.034L131.692 115.243L130.541 119.855C130.333 120.7 130.177 121.11 129.884 121.456C129.744 121.627 129.568 121.765 129.368 121.86C129.169 121.956 128.951 122.006 128.73 122.007C128.564 122.01 128.4 121.975 128.251 121.903C128.101 121.832 127.971 121.726 127.87 121.595C127.762 121.445 127.683 121.276 127.638 121.098L127.17 121.282C127.19 121.565 127.205 121.961 127.492 122.31C127.748 122.655 128.225 122.893 128.921 122.893Z" fill="#0000FF"/>
<path d="M214.684 117.129L213.303 122.667H214.738L215.767 118.545C216.089 118.267 216.543 117.866 217.137 117.866C217.658 117.866 217.847 118.199 217.855 118.512C217.852 118.704 217.821 118.894 217.763 119.076L216.868 122.667H218.32L219.251 118.926C219.365 118.46 219.476 117.908 219.17 117.476C218.956 117.174 218.538 116.967 217.968 116.967C216.918 116.967 216.304 117.529 215.94 117.856L216.125 117.129H214.684Z" fill="#0000FF"/>
<path d="M199.387 122.667H206.001L206.27 121.594H201.898L207.723 115.411L207.818 115.034H201.771L201.562 115.243L201.347 116.093H205.327L199.467 122.331L199.387 122.667Z" fill="#0000FF"/>
<path d="M196.311 120.037C196.452 119.431 196.693 118.407 196.124 117.626C195.62 116.954 194.772 116.879 194.298 116.879C192.341 116.879 190.971 118.199 190.571 119.82C190.147 121.518 190.855 122.893 192.842 122.893C194.745 122.893 195.471 121.756 195.858 121.152L195.547 120.98C195.05 121.466 194.522 121.974 193.516 121.974C191.806 121.974 192.004 120.449 192.048 120.037H196.311ZM194.041 117.787C195.119 117.787 195.014 118.699 194.958 119.196H192.296C192.573 118.643 193 117.787 194.041 117.787Z" fill="#0000FF"/>
<path d="M170.946 106.159C170.963 106.029 170.938 105.898 170.874 105.784C170.83 105.735 170.775 105.696 170.715 105.669C170.654 105.641 170.589 105.627 170.523 105.626C170.164 105.626 169.944 105.798 169.866 106.139C169.849 106.204 169.845 106.271 169.855 106.337C169.866 106.403 169.89 106.466 169.925 106.522C169.997 106.633 170.125 106.69 170.299 106.69C170.648 106.69 170.866 106.512 170.946 106.159Z" fill="#0000FF"/>
<path d="M184.07 110.187H185.057L186.878 102.308L186.74 102.443C186.636 102.552 186.445 102.724 186.182 102.952C186.066 103.037 185.896 103.152 185.681 103.287L185.663 103.3L184.087 110.12L184.07 110.187Z" fill="#0000FF"/>
<path d="M129.806 112.467C129.696 112.569 129.619 112.702 129.585 112.848C129.566 112.915 129.561 112.985 129.572 113.055C129.583 113.124 129.609 113.19 129.648 113.247C129.729 113.362 129.862 113.422 130.045 113.422C130.208 113.428 130.368 113.376 130.496 113.274C130.623 113.173 130.71 113.029 130.741 112.868C130.764 112.733 130.738 112.593 130.665 112.476C130.62 112.418 130.561 112.372 130.495 112.341C130.428 112.31 130.355 112.294 130.281 112.296C130.107 112.289 129.936 112.351 129.806 112.467" fill="#0000FF"/>
<path d="M133.915 106.663C133.422 106.778 132.94 106.941 132.477 107.148C131.484 107.606 130.906 108.175 130.753 108.837L130.457 110.118C130.285 110.761 130.01 111.105 129.631 111.138C129.416 111.161 129.083 111.021 128.635 110.733L128.5 110.645L128.554 110.798C128.787 111.422 129.106 111.738 129.512 111.738H129.527C129.994 111.743 130.446 111.575 130.798 111.268C131.124 110.97 131.347 110.577 131.436 110.145L131.735 108.861C131.76 108.693 131.836 108.535 131.953 108.411C132.11 108.267 132.289 108.148 132.483 108.058C132.555 108.022 132.629 107.985 132.71 107.949L132.194 110.186H143.096L143.317 109.222H141.515C141.416 109.222 141.329 109.167 141.254 109.054C141.178 108.948 141.147 108.816 141.168 108.687C141.19 108.517 141.268 108.359 141.389 108.238C141.441 108.181 141.504 108.136 141.574 108.105C141.645 108.074 141.721 108.059 141.798 108.059H143.588L143.806 107.097H141.995C141.769 107.095 141.544 107.137 141.335 107.222C141.125 107.307 140.935 107.433 140.774 107.592C140.478 107.865 140.28 108.228 140.211 108.625C140.163 108.896 140.196 109.094 140.316 109.222H137.487L138.853 103.303L138.817 103.284C138.513 103.13 138.291 102.856 138.161 102.463L138.101 102.283L136.499 109.222H133.405L133.999 106.641L133.915 106.663ZM129.512 111.684V111.681H129.513L129.512 111.684Z" fill="#0000FF"/>
<path d="M157.679 110.662C157.576 110.758 157.506 110.882 157.476 111.019C157.434 111.201 157.449 111.341 157.524 111.436C157.595 111.523 157.714 111.568 157.879 111.568H157.903C158.067 111.566 158.225 111.507 158.351 111.401C158.455 111.316 158.526 111.196 158.55 111.063C158.583 110.884 158.562 110.747 158.485 110.654C158.409 110.563 158.287 110.52 158.114 110.52C157.956 110.512 157.801 110.562 157.679 110.662Z" fill="#0000FF"/>
<path d="M167.669 109.263L167.455 110.187H170.178L170.898 107.077L170.808 107.101C170.318 107.223 169.84 107.387 169.379 107.593C168.394 108.056 167.816 108.619 167.669 109.263ZM169.03 108.693C169.224 108.594 169.411 108.491 169.605 108.388L169.411 109.224H168.667C168.717 109.007 168.846 108.818 169.03 108.693Z" fill="#0000FF"/>
<path d="M151.168 102.444C151.021 102.614 150.86 102.772 150.688 102.915C150.417 103.101 150.229 103.223 150.112 103.284L150.088 103.296L148.516 110.118C148.346 110.761 148.069 111.105 147.692 111.138C147.477 111.16 147.144 111.021 146.697 110.733L146.559 110.644L146.612 110.798C146.845 111.415 147.17 111.73 147.573 111.73H147.588C148.051 111.732 148.5 111.566 148.851 111.262C149.161 110.968 149.381 110.593 149.485 110.179L149.679 110.181V110.187H163.791L165.369 103.346L165.378 103.304L165.343 103.285C165.042 103.131 164.824 102.857 164.689 102.463L164.629 102.284L163.024 109.223H159.847C159.633 109.223 159.496 109.183 159.444 109.108C159.352 108.954 159.302 108.72 159.295 108.417C159.311 108.219 159.266 108.021 159.167 107.849C159.12 107.763 159.054 107.689 158.975 107.631C158.895 107.573 158.804 107.534 158.708 107.515H157.869L157.648 108.477H158.186C158.286 108.477 158.331 108.644 158.353 108.782C158.368 108.931 158.395 109.078 158.433 109.223H154.08L154.7 106.541L154.566 106.678C154.419 106.83 154.264 106.974 154.101 107.109C153.835 107.304 153.639 107.442 153.504 107.523L153.483 107.536L153.095 109.223H149.712L151.312 102.293L151.168 102.444ZM147.573 111.677V111.674H147.574L147.573 111.677Z" fill="#0000FF"/>
<path d="M153.156 110.855C152.98 110.852 152.81 110.915 152.679 111.032C152.56 111.131 152.478 111.267 152.448 111.419C152.433 111.487 152.431 111.558 152.444 111.627C152.456 111.696 152.482 111.761 152.52 111.82C152.595 111.944 152.732 112.004 152.917 112.004H152.923C153.292 111.955 153.51 111.768 153.567 111.439C153.596 111.305 153.573 111.165 153.505 111.046C153.47 110.984 153.419 110.934 153.358 110.9C153.296 110.866 153.226 110.851 153.155 110.855" fill="#0000FF"/>
<path d="M169.033 106.699C169.36 106.691 169.567 106.514 169.645 106.17C169.663 106.107 169.667 106.041 169.657 105.977C169.647 105.913 169.624 105.851 169.588 105.796C169.552 105.742 169.502 105.697 169.444 105.667C169.385 105.638 169.32 105.623 169.254 105.626C169.091 105.62 168.933 105.675 168.809 105.781C168.699 105.876 168.623 106.003 168.591 106.144C168.574 106.211 168.571 106.281 168.584 106.349C168.597 106.417 168.625 106.481 168.666 106.536C168.703 106.591 168.753 106.635 168.812 106.664C168.871 106.694 168.937 106.707 169.003 106.704C169.013 106.705 169.023 106.703 169.033 106.699Z" fill="#0000FF"/>
<path d="M174.088 107.969C173.94 108.143 173.778 108.304 173.604 108.452C173.335 108.628 173.145 108.746 173.028 108.809L173.007 108.82L172.709 110.119C172.536 110.761 172.262 111.106 171.882 111.139C171.668 111.161 171.334 111.022 170.886 110.734L170.748 110.645L170.805 110.799C171.038 111.416 171.364 111.731 171.769 111.731H171.783C172.246 111.733 172.694 111.567 173.042 111.262C173.354 110.97 173.576 110.594 173.681 110.18L173.873 110.182L173.869 110.188H183.317L184.899 103.347L184.905 103.304L184.866 103.285C184.571 103.132 184.35 102.857 184.216 102.463L184.154 102.284L182.551 109.224H179.374C179.159 109.224 179.019 109.184 178.971 109.108C178.878 108.958 178.828 108.721 178.822 108.417C178.835 108.219 178.789 108.022 178.691 107.85C178.645 107.763 178.58 107.688 178.501 107.63C178.422 107.572 178.331 107.533 178.234 107.516H177.396L177.175 108.478H177.713C177.81 108.478 177.859 108.645 177.879 108.782C177.896 108.931 177.922 109.078 177.957 109.224H173.902L174.18 108.019L174.088 107.969ZM171.769 111.677V111.675H171.77L171.769 111.677Z" fill="#0000FF"/>
<path d="M128.209 112.846C128.189 112.916 128.186 112.99 128.201 113.061C128.215 113.133 128.247 113.199 128.292 113.256C128.335 113.311 128.39 113.354 128.453 113.383C128.516 113.411 128.584 113.424 128.653 113.42H128.682C129.037 113.414 129.261 113.227 129.345 112.869C129.362 112.802 129.365 112.732 129.354 112.664C129.342 112.596 129.316 112.531 129.277 112.474C129.238 112.415 129.184 112.368 129.121 112.336C129.057 112.305 128.987 112.291 128.916 112.295C128.531 112.295 128.293 112.481 128.209 112.846Z" fill="#0000FF"/>
<path d="M198.348 104.604C198.464 104.502 198.543 104.363 198.571 104.21C198.587 104.139 198.587 104.066 198.573 103.995C198.559 103.924 198.53 103.856 198.488 103.797C198.443 103.741 198.385 103.696 198.319 103.667C198.253 103.638 198.181 103.625 198.109 103.629C197.94 103.623 197.774 103.681 197.646 103.791C197.528 103.895 197.445 104.034 197.411 104.188C197.389 104.256 197.383 104.328 197.394 104.398C197.404 104.469 197.431 104.536 197.471 104.595C197.545 104.705 197.682 104.762 197.873 104.762C198.045 104.77 198.214 104.713 198.348 104.604Z" fill="#0000FF"/>
<path d="M212.225 105.994C212.612 105.985 212.842 105.805 212.908 105.457C212.941 105.266 212.916 105.12 212.836 105.021C212.758 104.929 212.63 104.88 212.457 104.88C212.078 104.88 211.846 105.062 211.765 105.414C211.747 105.483 211.743 105.555 211.755 105.626C211.767 105.696 211.794 105.763 211.834 105.823C211.875 105.88 211.93 105.926 211.993 105.956C212.057 105.986 212.127 105.999 212.197 105.994H212.225Z" fill="#0000FF"/>
<path d="M222.219 110.187H223.2L225.021 102.309L224.886 102.443C224.778 102.554 224.588 102.724 224.329 102.952C224.209 103.037 224.042 103.152 223.827 103.287L223.81 103.3L222.234 110.12L222.219 110.187Z" fill="#0000FF"/>
<path d="M196.516 104.783H196.522C196.716 104.758 196.859 104.704 196.957 104.613C197.072 104.508 197.15 104.368 197.178 104.214C197.202 104.074 197.183 103.93 197.122 103.801C197.079 103.746 197.024 103.702 196.961 103.672C196.897 103.642 196.828 103.627 196.758 103.629C196.582 103.625 196.41 103.685 196.275 103.798C196.148 103.896 196.062 104.038 196.032 104.195C196.017 104.265 196.016 104.338 196.029 104.409C196.042 104.48 196.07 104.547 196.11 104.607C196.197 104.723 196.331 104.782 196.514 104.782L196.516 104.783Z" fill="#0000FF"/>
<path d="M192.199 106.159C192.215 106.029 192.189 105.898 192.125 105.784C192.08 105.734 192.026 105.695 191.965 105.667C191.905 105.64 191.839 105.626 191.772 105.626C191.417 105.626 191.2 105.798 191.119 106.139C191.101 106.203 191.097 106.271 191.107 106.337C191.118 106.403 191.142 106.466 191.178 106.522C191.251 106.633 191.379 106.69 191.552 106.69C191.901 106.69 192.119 106.512 192.199 106.159Z" fill="#0000FF"/>
<path d="M190.288 106.699C190.614 106.692 190.819 106.514 190.9 106.17C190.917 106.107 190.92 106.042 190.91 105.977C190.899 105.913 190.876 105.851 190.84 105.797C190.805 105.742 190.756 105.697 190.697 105.667C190.639 105.638 190.574 105.624 190.509 105.627C190.346 105.621 190.186 105.676 190.061 105.781C189.954 105.878 189.878 106.004 189.843 106.145C189.826 106.211 189.823 106.281 189.836 106.349C189.849 106.417 189.877 106.481 189.918 106.537C189.956 106.591 190.007 106.635 190.066 106.665C190.126 106.694 190.192 106.708 190.259 106.704C190.269 106.705 190.279 106.703 190.288 106.699Z" fill="#0000FF"/>
<path d="M188.922 109.263L188.707 110.187H214.89C214.932 110.413 215.049 110.618 215.224 110.767C215.432 110.941 215.696 111.032 215.967 111.023C216.266 111.02 216.558 110.935 216.811 110.776C217.06 110.626 217.269 110.418 217.422 110.171H217.55L217.545 110.187H221.466L223.043 103.347L223.052 103.304L223.016 103.285C222.715 103.132 222.497 102.857 222.364 102.463L222.3 102.284L220.698 109.224H218.467V109.222H217.655C217.607 108.971 217.472 108.746 217.273 108.587C217.073 108.427 216.824 108.344 216.569 108.353C216.267 108.355 215.972 108.441 215.716 108.603C215.462 108.755 215.248 108.967 215.095 109.222L212.049 109.223L212.667 106.541L212.533 106.678C212.387 106.831 212.232 106.974 212.07 107.109C211.805 107.304 211.605 107.442 211.474 107.523L211.456 107.536L211.065 109.223H207.687C207.78 108.75 207.711 108.354 207.488 108.042C207.237 107.691 206.825 107.515 206.274 107.515H201.986L203.15 102.493L203.052 102.451C202.777 102.813 202.414 103.099 201.998 103.283L201.974 103.294L200.605 109.223H197.496L198.382 105.385L198.298 105.404C197.809 105.521 197.332 105.683 196.873 105.888C195.888 106.344 195.313 106.905 195.16 107.559L194.948 108.478H196.685L196.512 109.223H191.655L192.15 107.077L192.066 107.101C191.575 107.222 191.096 107.386 190.634 107.592C189.646 108.057 189.071 108.618 188.922 109.263ZM215.868 109.723C215.894 109.612 215.959 109.515 216.05 109.447C216.134 109.373 216.242 109.33 216.354 109.328C216.399 109.325 216.444 109.333 216.485 109.351C216.526 109.369 216.563 109.397 216.591 109.432C216.619 109.467 216.639 109.508 216.648 109.552C216.657 109.596 216.656 109.642 216.644 109.685C216.617 109.793 216.555 109.888 216.468 109.957C216.385 110.029 216.279 110.07 216.169 110.071C216.123 110.074 216.078 110.066 216.035 110.048C215.993 110.03 215.955 110.003 215.925 109.969C215.895 109.936 215.874 109.896 215.864 109.853C215.854 109.81 215.856 109.765 215.868 109.723ZM201.765 108.478H206.074C206.317 108.478 206.494 108.54 206.599 108.661C206.703 108.782 206.736 108.971 206.703 109.224H201.593L201.765 108.478ZM196.16 107.516C196.215 107.296 196.35 107.104 196.539 106.977C196.727 106.88 196.911 106.781 197.096 106.684L196.902 107.515L196.16 107.516ZM190.288 108.693C190.477 108.594 190.668 108.491 190.862 108.388L190.663 109.224H189.918C189.969 109.006 190.101 108.816 190.288 108.693Z" fill="#0000FF"/>
</g>
</g>
<defs>
<clipPath id="clip0_4017_241">
<rect width="150" height="98" fill="white" transform="translate(76 34)"/>
</clipPath>
</defs>
</svg>
