<svg width="40" height="40" viewBox="0 0 40 40" fill="none" xmlns="http://www.w3.org/2000/svg">
<g clip-path="url(#clip0_1166_34534)">
<path d="M28.6862 26.6087L33.2809 34.6247C33.3242 34.6997 33.323 34.7909 33.2771 34.8647C33.2337 34.934 33.1638 34.976 33.09 34.976C33.0842 34.976 33.0782 34.976 33.0723 34.9754L28.4251 34.6796L26.3609 38.8437C26.3234 38.9194 26.2482 38.9693 26.164 38.9732H26.1517C26.0689 38.9732 25.9918 38.9285 25.9511 38.8573L21.2445 31.0462M18.8771 31.0462L14.441 38.2471L12.502 34.3341C12.4631 34.2551 12.3826 34.204 12.2985 34.204C12.2933 34.204 12.2883 34.2034 12.2786 34.204L7.91854 34.481L12.5087 26.6087M17.1982 16.9669L19.2672 18.6147L23.4051 14.2083M20.2902 1.37915C18.7119 1.37915 16.7909 2.33687 16.0079 3.51394C15.135 4.82302 13.2013 5.93991 11.6068 6.05574C10.169 6.16057 8.35791 7.35772 7.56845 8.72439C6.78028 10.0911 6.66941 12.2446 7.32104 13.5252C8.04515 14.9521 8.04515 17.1872 7.32104 18.6134C6.66941 19.8953 6.78093 22.0488 7.56845 23.4148C8.35726 24.7809 10.169 25.978 11.6068 26.0829C13.176 26.198 15.1505 27.3389 16.0079 28.6253C16.7916 29.8024 18.7126 30.7601 20.2909 30.7601C21.8691 30.7601 23.7905 29.8024 24.5735 28.626C25.4296 27.3395 27.4031 26.1993 28.9743 26.0841C30.4134 25.9793 32.2254 24.7828 33.0129 23.4168C33.8005 22.0514 33.911 19.8966 33.26 18.6147C32.5359 17.1885 32.5359 14.9534 33.26 13.5259C33.9117 12.2453 33.8011 10.0917 33.0142 8.7257C32.2247 7.35902 30.4128 6.16252 28.9743 6.05704C27.4044 5.94186 25.4302 4.80101 24.5735 3.51457C23.7898 2.3375 21.8691 1.38045 20.2909 1.38045L20.2902 1.37915Z" stroke="white" stroke-width="2" stroke-linecap="round"/>
<path d="M20.0002 23.4483C15.8169 23.4483 12.4141 20.0449 12.4141 15.8621C12.4141 11.6793 15.8174 8.27588 20.0002 8.27588C24.1831 8.27588 27.5864 11.6793 27.5864 15.8621C27.5864 20.0449 24.1831 23.4483 20.0002 23.4483Z" stroke="white" stroke-width="2" stroke-linecap="round"/>
</g>
<defs>
<clipPath id="clip0_1166_34534">
<rect width="40" height="40" fill="white"/>
</clipPath>
</defs>
</svg>
