<svg width="40" height="40" viewBox="0 0 40 40" fill="none" xmlns="http://www.w3.org/2000/svg">
<path d="M23.3333 15.8933V11.6667C23.3333 9.89856 24.0357 8.20286 25.286 6.95262C26.5362 5.70238 28.2319 5 30 5H32.5C32.721 5 32.933 5.0878 33.0893 5.24408C33.2455 5.40036 33.3333 5.61232 33.3333 5.83333V8.33333C33.3333 10.1014 32.631 11.7971 31.3807 13.0474C30.1305 14.2976 28.4348 15 26.6667 15C24.8986 15 23.2029 15.7024 21.9526 16.9526C20.7024 18.2029 20 19.8986 20 21.6667C20 25 21.6667 26.6667 21.6667 30C21.6667 31.8031 21.0819 33.5575 20 35" stroke="white" stroke-width="2" stroke-linecap="round" stroke-linejoin="round"/>
<path d="M10.9176 13.3669C9.37629 13.5059 7.9041 14.0714 6.66602 14.9999C6.66602 16.5475 7.09697 18.0645 7.91059 19.381C8.72421 20.6975 9.88835 21.7614 11.2726 22.4535C12.6568 23.1456 14.2064 23.4386 15.7477 23.2996C17.2891 23.1606 18.7613 22.5951 19.9993 21.6666C19.9993 20.119 19.5684 18.602 18.7548 17.2855C17.9412 15.969 16.777 14.9051 15.3928 14.213C14.0086 13.5209 12.459 13.2279 10.9176 13.3669Z" stroke="white" stroke-width="2" stroke-linecap="round" stroke-linejoin="round"/>
<path d="M8.33398 35H31.6673" stroke="white" stroke-width="2" stroke-linecap="round" stroke-linejoin="round"/>
</svg>
