<svg width="50" height="51" viewBox="0 0 50 51" fill="none" xmlns="http://www.w3.org/2000/svg">
<path d="M27.2043 43.9843L27.1936 43.9915C26.5295 44.4292 25.8037 44.7653 25.0379 44.9868L24.8562 45.0395L24.6746 44.9868C23.9088 44.7653 23.183 44.4292 22.5188 43.9915L22.5082 43.9843L22.1892 43.808C17.923 41.4615 8 34.8922 8 24.6033V14.7703C8 12.7343 8.02194 11.5574 8.48467 11.0325C8.9347 10.5221 10.0615 10.2824 12.3425 9.8937C15.7559 9.39061 18.9824 8.24095 21.9385 6.47376L22.0802 6.38652C23.5446 5.46569 24.2791 5.00439 24.8598 5.00439C25.4405 5.00439 26.174 5.46573 27.6402 6.38474L27.7722 6.46833C30.7337 8.23915 33.9656 9.39065 37.3753 9.89193L37.3956 9.89548C39.7184 10.2914 40.783 10.5184 41.2349 11.0306C41.6958 11.5555 41.7196 12.7324 41.7196 14.7666V24.5997C41.7196 34.8958 31.7974 41.4615 27.5312 43.8063L27.2096 43.9824L27.2043 43.9843Z" stroke="#E31E26" stroke-width="2"/>
<path d="M17.2956 25.591L22.2442 30.1511C22.3821 30.2764 22.5597 30.3473 22.7448 30.3473C22.9299 30.3473 23.1084 30.2782 23.2463 30.1511L32.4258 21.6919" stroke="#E31E26" stroke-width="2" stroke-linecap="round"/>
</svg>
