<svg width="50" height="51" viewBox="0 0 50 51" fill="none" xmlns="http://www.w3.org/2000/svg">
<path d="M19.8257 21.1909C24.8358 21.1909 28.9117 17.1114 28.9117 12.097C28.9117 7.08249 24.8358 3.00293 19.8257 3.00293C14.8156 3.00293 10.7396 7.08249 10.7396 12.097C10.7396 17.1114 14.8156 21.1909 19.8257 21.1909Z" stroke="#E31E26" stroke-width="2"/>
<path d="M18.8676 41.3613H4V34.1529C4 30.1779 7.23061 26.9443 11.2021 26.9443H22.6996" stroke="#E31E26" stroke-width="2" stroke-linecap="round"/>
<path d="M35.1566 39.4424C33.2988 39.4424 31.7866 37.9299 31.7866 36.0698C31.7866 34.2097 33.2979 32.6973 35.1566 32.6973C37.0152 32.6973 38.5266 34.2097 38.5266 36.0698C38.5266 37.9299 37.0152 39.4424 35.1566 39.4424Z" stroke="#E31E26" stroke-width="2"/>
<path d="M45.8729 38.8661L43.6608 37.2743L43.699 36.9806C43.74 36.6687 43.7598 36.3629 43.7598 36.0719C43.7598 35.7826 43.7391 35.4767 43.699 35.163L43.6608 34.8694L45.872 33.2775C46.4666 32.8488 46.639 32.0463 46.2725 31.4111L44.7447 28.7623C44.4923 28.3231 44.0212 28.0504 43.5163 28.0504C43.3143 28.0504 43.1168 28.0931 42.9305 28.1768L40.4293 29.306L40.196 29.1352C39.6989 28.771 39.1723 28.4643 38.63 28.2238L38.3669 28.1071L38.0944 25.3824C38.0221 24.6522 37.4144 24.1016 36.6806 24.1016H33.6242C32.8904 24.1016 32.2827 24.6514 32.2104 25.3815L31.9388 28.1053L31.6757 28.2221C31.129 28.466 30.6016 28.7728 30.1097 29.1335L29.8763 29.3042L27.3752 28.1749C27.1871 28.0904 26.9897 28.0477 26.7877 28.0477C26.2845 28.0477 25.8143 28.3214 25.5609 28.7614L24.034 31.4102C23.6675 32.0454 23.8399 32.848 24.4345 33.2766L26.6466 34.8685L26.6083 35.1621C26.5674 35.4741 26.5471 35.7799 26.5471 36.0709C26.5471 36.3593 26.5683 36.6652 26.6083 36.9798L26.6457 37.2733L24.4345 38.8653C23.8399 39.294 23.6675 40.0964 24.034 40.7316L25.5618 43.3813C25.8151 43.8222 26.2854 44.0959 26.7886 44.0959C26.9905 44.0959 27.1871 44.0531 27.3752 43.9669L29.8763 42.8376L30.1097 43.0084C30.6024 43.37 31.129 43.6768 31.6757 43.9199L31.9388 44.0366L32.2104 46.7612C32.2827 47.4914 32.8904 48.0421 33.6242 48.0421H36.6806C37.4144 48.0421 38.0221 47.4923 38.0944 46.7621L38.3686 44.0366L38.6317 43.9199C39.1784 43.6759 39.7049 43.3692 40.1977 43.0084L40.431 42.8376L42.9322 43.9669C43.1202 44.0514 43.3177 44.095 43.5197 44.095C44.022 44.095 44.4922 43.8214 44.7464 43.3813L46.2716 40.7343C46.6381 40.0991 46.3765 39.2294 45.7819 38.8007L45.8729 38.8661Z" stroke="#E31E26" stroke-width="2"/>
</svg>
