<svg width="50" height="51" viewBox="0 0 50 51" fill="none" xmlns="http://www.w3.org/2000/svg">
<g clip-path="url(#clip0_1159_27674)">
<path d="M22.6535 39.9086L22.1221 39.6888C20.717 39.1089 19.5466 38.2278 18.9103 37.2713C18.1465 36.1242 16.5568 35.0141 14.953 34.5089L14.5674 34.3873L13.2128 34.1725C11.2318 33.8318 8.97153 32.2467 7.95542 30.4846C6.82614 28.5236 6.67828 25.5356 7.61893 23.6811C8.46568 22.0138 8.46568 19.3002 7.61893 17.6312C6.67744 15.7776 6.82614 12.7904 7.95542 10.8311C9.08387 8.87348 11.5923 7.2204 13.6664 7.06769C15.5351 6.93175 17.8875 5.57329 18.9095 4.0394C20.0421 2.33602 22.6996 1.00098 24.9598 1.00098C27.1823 1.00098 29.8972 2.3637 31.0106 4.03771C32.0317 5.5716 34.3832 6.93011 36.2545 7.06605C38.3294 7.21793 40.8378 8.8701 41.9654 10.8277C43.0956 12.7887 43.243 15.7759 42.3007 17.6287C41.4556 19.2985 41.4565 22.0122 42.3007 23.6786C43.2422 25.5339 43.0948 28.5211 41.9646 30.4804C40.9485 32.2434 38.6883 33.8293 36.7072 34.1699L35.3555 34.3889L34.9707 34.5098L34.9691 34.5106C33.367 35.0141 31.7768 36.1242 31.013 37.2721C30.3759 38.2287 29.2055 39.1098 27.8012 39.6896L27.2694 39.9086M14.5674 34.3873L8.93297 44.1586L14.5817 43.7995C14.5943 43.7987 14.6008 43.7995 14.6075 43.7995C14.7165 43.7995 14.8208 43.8658 14.8711 43.9682L17.3834 49.0422L22.6535 39.9086M35.3555 34.3889L40.9912 44.1603L35.3371 43.8003C35.3295 43.8003 35.3229 43.8003 35.3162 43.8003C35.2064 43.8003 35.1033 43.8667 35.0522 43.969L32.5395 49.0431L27.2694 39.9086M27.2694 39.9086L26.307 40.1477C25.7889 40.256 25.348 40.3089 24.959 40.3089C24.57 40.3089 24.1308 40.256 23.6093 40.1486L22.6535 39.9086M18.7056 20.8685L22.7341 24.9004C22.7911 24.9583 22.8673 24.9893 22.9478 24.9893L22.9486 24.9876C23.0291 24.9876 23.1053 24.9557 23.1623 24.8987L31.2181 16.8358M24.9615 33.0523C18.1313 33.0523 12.5755 27.4907 12.5755 20.6554C12.5755 13.82 18.1321 8.25838 24.9615 8.25838C31.7908 8.25838 37.3475 13.82 37.3475 20.6554C37.3475 27.4907 31.7908 33.0523 24.9615 33.0523Z" stroke="#E31E26" stroke-width="2" stroke-linecap="round"/>
</g>
<defs>
<clipPath id="clip0_1159_27674">
<rect width="50" height="50.0439" fill="white"/>
</clipPath>
</defs>
</svg>
