<svg width="30" height="30" viewBox="0 0 30 30" fill="none" xmlns="http://www.w3.org/2000/svg">
<path d="M21.1897 1.79324V5.26011M15.0474 1.66602V5.26011M8.90508 1.66602V5.26011M24.0037 3.49972H7.41175H5.268C4.56884 3.49972 4 4.06777 4 4.76594V26.3998C4 27.098 4.56884 27.666 5.268 27.666H24.0053C24.7044 27.666 25.2727 27.098 25.2727 26.3998V4.76594C25.2727 4.06777 24.7044 3.49972 24.0053 3.49972H24.0037Z" stroke="white" stroke-width="2" stroke-linecap="round"/>
<path d="M21.9998 11.6658L14.4958 11.6462" stroke="white" stroke-width="2" stroke-linecap="round"/>
<path d="M6.7854 11.8804L8.26144 13.4582L8.48707 13.6673L11.6245 10.5302" stroke="white" stroke-width="2" stroke-linecap="round"/>
<path d="M6.78564 17.8734L8.26168 19.4512L8.48731 19.6604L11.6248 16.5232" stroke="white" stroke-width="2" stroke-linecap="round"/>
<path d="M21.999 18.7375H14.4951" stroke="white" stroke-width="2" stroke-linecap="round"/>
</svg>
