<svg width="30" height="30" viewBox="0 0 30 30" fill="none" xmlns="http://www.w3.org/2000/svg">
<path d="M6.75888 18.3411C5.86807 20.3459 4.9786 22.352 4.10512 24.3648C4.01784 24.566 3.97387 24.8239 4.01518 25.0344C4.09646 25.4488 4.55019 25.6561 4.98593 25.5115C5.94869 25.193 6.90746 24.8639 7.86755 24.5394C7.96083 24.5074 8.05411 24.4768 8.16671 24.4388C8.3566 24.8759 8.54182 25.3003 8.72571 25.726C8.95957 26.2677 9.20343 26.806 9.42196 27.3537C9.54322 27.6569 9.71912 27.8867 10.0309 28H10.3807C10.6865 27.8774 10.8511 27.6389 10.9797 27.3437C11.7393 25.6001 12.5128 23.8625 13.2737 22.1195M22.4089 18.3637C23.3064 20.3839 24.1952 22.4087 25.0887 24.4308C25.2286 24.7479 25.2306 25.0484 24.9907 25.3143C24.7595 25.5714 24.467 25.6154 24.1465 25.5061C23.8321 25.3995 23.5163 25.2936 23.2018 25.187C22.4715 24.9392 21.7413 24.6906 20.9978 24.4381C20.9524 24.5341 20.9118 24.6147 20.8765 24.6966C20.494 25.5814 20.1056 26.4642 19.7345 27.3537C19.6092 27.6542 19.44 27.8894 19.1255 28H18.7757C18.4693 27.8787 18.3047 27.6389 18.1761 27.3437C17.4165 25.6001 16.6437 23.8625 15.8821 22.1195M4.37607 12.0073C4.36319 17.497 8.8316 21.9823 14.3245 21.9944C19.815 22.0065 24.2979 17.5389 24.3092 12.0444C24.3204 6.52729 19.8657 2.02182 14.376 2.00008C8.88234 1.97833 4.38896 6.47494 4.37607 12.0073Z" stroke="white" stroke-width="2"/>
<path d="M14.0445 5.74495C14.071 5.69138 14.112 5.64629 14.1628 5.61476C14.2135 5.58323 14.2721 5.56653 14.3319 5.56653C14.3917 5.56653 14.4503 5.58323 14.501 5.61476C14.5518 5.64629 14.5928 5.69138 14.6193 5.74495L16.017 8.576C16.109 8.76234 16.245 8.92355 16.4131 9.0458C16.5811 9.16805 16.7764 9.24768 16.982 9.27786L20.1077 9.73528C20.167 9.74387 20.2226 9.76885 20.2684 9.80741C20.3141 9.84596 20.3482 9.89656 20.3667 9.95347C20.3852 10.0104 20.3874 10.0713 20.3731 10.1294C20.3588 10.1875 20.3285 10.2405 20.2856 10.2823L18.0251 12.4834C17.8761 12.6287 17.7645 12.808 17.7001 13.006C17.6357 13.2039 17.6204 13.4145 17.6555 13.6197L18.1891 16.7297C18.1996 16.7889 18.1932 16.8498 18.1707 16.9056C18.1481 16.9613 18.1104 17.0096 18.0618 17.0449C18.0131 17.0803 17.9556 17.1012 17.8956 17.1054C17.8356 17.1096 17.7757 17.0968 17.7226 17.0685L14.9285 15.5995C14.7444 15.5028 14.5395 15.4523 14.3316 15.4523C14.1237 15.4523 13.9188 15.5028 13.7347 15.5995L10.9412 17.0685C10.8881 17.0966 10.8283 17.1092 10.7684 17.105C10.7085 17.1007 10.6511 17.0798 10.6025 17.0445C10.554 17.0092 10.5163 16.961 10.4938 16.9053C10.4713 16.8497 10.4649 16.7888 10.4753 16.7297L11.0083 13.6203C11.0436 13.4151 11.0283 13.2043 10.9639 13.0062C10.8995 12.8082 10.7879 12.6287 10.6387 12.4834L8.37817 10.2829C8.33497 10.2411 8.30435 10.1881 8.28981 10.1298C8.27527 10.0715 8.27739 10.0104 8.29593 9.95322C8.31447 9.89609 8.34868 9.84531 8.39467 9.80667C8.44066 9.76803 8.49658 9.74309 8.55606 9.73468L11.6812 9.27786C11.887 9.24791 12.0825 9.16838 12.2509 9.04612C12.4192 8.92386 12.5553 8.76252 12.6474 8.576L14.0445 5.74495Z" stroke="white" stroke-width="2" stroke-linecap="round" stroke-linejoin="round"/>
</svg>
