<svg width="30" height="30" viewBox="0 0 30 30" fill="none" xmlns="http://www.w3.org/2000/svg">
<path d="M15.2873 18.1333L15.2768 13.6771M15.2768 13.6771C14.8814 13.6771 14.5052 13.685 14.1291 13.6753C13.603 13.6622 13.169 13.8472 12.8061 14.2268C12.5106 14.5354 12.2107 14.8405 11.896 15.129C11.803 15.2132 11.654 15.2781 11.5304 15.2789C10.4002 15.2903 6.13152 15.2772 5.00049 15.2789M15.2768 13.6771V8.25818M13.1361 18.1333C13.4018 18.1333 20.6575 18.1438 20.9214 18.1473C21.2476 18.1526 21.5799 18.1254 21.8982 18.1798C22.7688 18.3262 23.3203 19.0627 23.2274 19.9622C23.0774 21.4107 22.9222 22.8591 22.7302 24.3023C22.5373 25.7542 21.2415 26.9448 19.7694 26.9764C17.8273 27.0176 15.8826 26.9939 13.9397 26.986C13.5215 26.9843 13.1638 26.7967 12.8674 26.5021C12.5465 26.1829 12.2221 25.8682 11.9109 25.5403C11.796 25.4193 11.6768 25.3807 11.5155 25.3816C10.3765 25.3877 6.13941 25.5438 5.00049 25.5403M19.7694 18.1509V8.25818" stroke="white" stroke-width="2" stroke-linecap="round"/>
<path d="M20.5141 2.69022C19.9898 2.15715 19.2735 1.99582 18.4774 2.01248C17.3805 2.03615 16.2828 2.0116 15.186 2.02037C14.1716 2.02914 13.3307 2.42719 12.6907 3.2119C11.8718 4.21843 11.0687 5.23812 10.2533 6.24815C10.0236 6.53223 9.92361 6.83208 10.0884 7.17578C10.2559 7.52561 10.5531 7.64923 10.931 7.64748C12.1375 7.64047 13.343 7.64485 14.5495 7.64485H19.6558C19.9319 7.6437 20.1941 7.38007 20.5141 7.17578M20.5141 2.69022C20.9797 2.48067 20.6003 1.93076 21.1836 2.00748C21.6906 2.07416 22.7613 2.00812 23.2076 2.07293C23.9511 2.18155 24.471 2.84636 24.4797 3.59964C24.4894 4.41949 24.4903 5.23934 24.4797 6.05918C24.4683 6.92458 23.9229 7.60516 23.061 7.6437C21.8094 7.6397 21.1585 7.76234 20.5141 7.17578M20.5141 2.69022V7.17578" stroke="white" stroke-width="2" stroke-linecap="round"/>
</svg>
