<svg width="30" height="30" viewBox="0 0 30 30" fill="none" xmlns="http://www.w3.org/2000/svg">
<g clip-path="url(#clip0_1166_32773)">
<path d="M14.5223 27.9596L2.03985 16.7525C1.44902 16.1882 1.08391 15.428 1.01277 14.6141C0.941636 13.8001 1.16934 12.9882 1.65332 12.3299L3.9534 9.19159C4.26689 8.76468 4.6763 8.4174 5.14861 8.17773C5.62093 7.93806 6.14295 7.8127 6.67259 7.81177H22.372C22.9016 7.8127 23.4237 7.93806 23.896 8.17773C24.3683 8.4174 24.7777 8.76468 25.0912 9.19159L27.3913 12.3321C27.8716 12.9815 28.1012 13.7825 28.0378 14.5877C27.9744 15.3929 27.6223 16.1481 27.0463 16.7143L14.5223 27.9596ZM14.5223 27.9596L9.26706 13.4299L11.8413 7.81177M14.5223 27.9596L19.7775 13.4299L17.3909 7.81177M1.12035 13.4299H27.9265" stroke="white" stroke-width="1.85981" stroke-linecap="round"/>
<path d="M14.9312 1.99927V4.78898" stroke="white" stroke-width="1.85981" stroke-linecap="round"/>
<path d="M8.47876 2.92908L9.94549 5.30209" stroke="white" stroke-width="1.85981" stroke-linecap="round"/>
<path d="M21.1047 2.92908L19.638 5.30209" stroke="white" stroke-width="1.85981" stroke-linecap="round"/>
</g>
<defs>
<clipPath id="clip0_1166_32773">
<rect width="29.3333" height="29.3333" fill="white"/>
</clipPath>
</defs>
</svg>
