<svg width="40" height="40" viewBox="0 0 40 40" fill="none" xmlns="http://www.w3.org/2000/svg">
<path d="M32.8147 21.3108C33.0278 20.3817 32.8808 19.403 32.3809 18.5314C31.8502 17.6064 31.3159 16.6825 30.7821 15.7597L24.5164 4.90812C24.1651 4.29981 23.6817 3.82079 23.0803 3.48497C22.5098 3.16618 21.8675 2.99805 21.222 2.99805C19.8579 2.99805 18.6236 3.7085 17.9205 4.8985C17.5613 5.50628 17.2095 6.11888 16.8582 6.73198L10.0464 18.5336C9.5935 19.3181 9.42905 20.1392 9.55838 20.9753C9.65177 21.5803 9.86254 22.1245 10.1678 22.5884" stroke="white" stroke-width="2" stroke-miterlimit="10" stroke-linecap="round"/>
<path d="M21.4102 6.93652V15.6052" stroke="white" stroke-width="2" stroke-miterlimit="10" stroke-linecap="round"/>
<path d="M21.4117 17.626C20.833 17.626 20.3658 18.092 20.3574 18.6694C20.3658 19.2467 20.833 19.7128 21.4117 19.7128C21.9905 19.7128 22.4577 19.2467 22.466 18.6694C22.4577 18.092 21.9905 17.626 21.4117 17.626Z" fill="white"/>
<path d="M10.852 33.7414L6.16892 24.7538L5.41704 23.3119C5.30493 23.0965 5.11516 22.9377 4.88216 22.8647C4.79166 22.8357 4.69934 22.8215 4.60614 22.8215C4.45959 22.8215 4.31903 22.8567 4.18734 22.9249L1.48983 24.331C1.27438 24.4431 1.11593 24.6329 1.04299 24.8659C0.969373 25.0975 0.990895 25.3448 1.10301 25.5602L7.28782 37.4294C7.39993 37.6448 7.58972 37.8034 7.82205 37.8764C7.91322 37.9054 8.00653 37.9196 8.09905 37.9196L8.09971 37.9211C8.24694 37.9211 8.3875 37.8859 8.51852 37.8177L11.216 36.4116C11.4315 36.2995 11.5899 36.1097 11.6629 35.8767C11.7365 35.6451 11.715 35.3979 11.6028 35.1824L10.852 33.7414ZM6.16892 24.7538L11.8934 21.7708C12.3283 21.5438 12.7531 21.4385 13.2312 21.4385C13.2785 21.4385 13.327 21.4398 13.3763 21.4418L21.5296 21.7943C22.3589 21.8301 23.1259 22.1888 23.6905 22.8041C24.2558 23.42 24.5468 24.2155 24.511 25.0441C24.5056 25.1758 24.4907 25.3088 24.4685 25.4398L24.36 26.0659L34.2478 20.9124C34.6962 20.6787 35.1778 20.5605 35.6783 20.5605C35.9971 20.5605 36.3151 20.6099 36.6244 20.7071C37.4207 20.9577 38.071 21.5012 38.4546 22.2374C38.8382 22.9742 38.9113 23.8177 38.6594 24.6133C38.4088 25.4102 37.8651 26.0598 37.1289 26.4441L21.9279 34.3659C21.4396 34.6199 20.9108 34.7435 20.3117 34.7435C19.7856 34.7435 19.2703 34.649 18.7921 34.5463L12.7584 33.2517C12.526 33.2017 12.3641 33.1808 12.2162 33.1808C12.0217 33.1808 11.8515 33.2199 11.6962 33.301L10.852 33.7414" stroke="white" stroke-width="2" stroke-miterlimit="10" stroke-linecap="round"/>
</svg>
