<svg width="40" height="40" viewBox="0 0 40 40" fill="none" xmlns="http://www.w3.org/2000/svg">
<path d="M10.9006 11.75L10.8977 10.9508C10.8977 6.56563 14.4633 3 18.8456 3H20.4498C24.8321 3 28.3977 6.56417 28.3977 10.945L28.4006 11.75L28.4167 16.1221C28.4167 20.9506 24.4923 24.875 19.6667 24.875C14.841 24.875 10.9167 20.9506 10.9167 16.125L10.9006 11.75ZM10.9006 11.75H8M10.9006 11.75H31.3144M16.731 3.72917V8.83333M22.5644 8.83333V3.28546M31.3144 38V33.625C31.3144 30.4079 28.6981 27.7917 25.481 27.7917H13.8333C10.6162 27.7917 8 30.4079 8 33.625V38" stroke="white" stroke-width="2" stroke-linecap="round"/>
</svg>
