<svg width="40" height="40" viewBox="0 0 40 40" fill="none" xmlns="http://www.w3.org/2000/svg">
<path d="M11.3227 12.2258H7.373C7.23014 12.2258 7.11345 12.3421 7.11345 12.485V28.7138L7.1433 28.7391C9.95924 31.0927 13.5286 32.3891 17.1944 32.3891C25.8482 32.3891 32.8876 25.3488 32.8876 16.6945C32.8876 8.0402 25.8476 1 17.1938 1C8.53996 1 1.5 8.04086 1.5 16.6945C1.5 21.2117 3.45181 25.5083 6.85779 28.4952L6.99146 28.3709M11.3227 12.2258V8.27548C11.3227 8.13261 11.4394 8.01632 11.5823 8.01632H25.613C25.7558 8.01632 25.8725 8.13261 25.8725 8.27548V23.7109M11.3227 12.2258H21.4037C21.5466 12.2258 21.6633 12.3421 21.6633 12.485V31.304" stroke="white" stroke-width="2" stroke-linecap="round"/>
<path d="M25.6094 29.8648L33.2686 37.1032C33.8467 37.682 34.6166 38.0009 35.4352 38.0009C36.2538 38.0009 37.0238 37.6826 37.6025 37.1038C38.1819 36.5244 38.5012 35.7542 38.5012 34.9356C38.5012 34.1169 38.1819 33.3475 37.6025 32.768L30.2343 25.7021" stroke="white" stroke-width="2" stroke-linecap="round"/>
<path d="M11.5801 17.8384H17.1922" stroke="white" stroke-width="2" stroke-linecap="round"/>
<path d="M11.5801 22.0503H17.1922" stroke="white" stroke-width="2" stroke-linecap="round"/>
<path d="M11.5801 26.2563H17.1922" stroke="white" stroke-width="2" stroke-linecap="round"/>
</svg>
