<svg width="40" height="40" viewBox="0 0 40 40" fill="none" xmlns="http://www.w3.org/2000/svg">
<path d="M20.195 39C20.1607 39 20.1424 38.9963 20.1424 38.9963C17.8201 38.2296 14.8194 37.093 12.2558 35.1064C9.52203 32.9886 7.74255 30.1642 6.81292 26.4701C6.23358 24.1699 5.97517 21.6982 6.02049 18.9142C6.03764 17.8939 6.03254 16.8627 6.02887 15.8644C6.02642 15.41 6.02528 14.9568 6.02528 14.5024V13.5446H6.00195V12.8048C6.00195 11.2493 6.0019 9.6411 6.00435 8.05863C6.00435 7.63362 6.02046 7.18412 6.04741 6.72482C6.06088 6.497 6.30106 6.48597 6.34883 6.48597C6.40884 6.48597 6.4723 6.49701 6.53721 6.52028C7.85267 6.98204 9.03947 7.20618 10.1626 7.20618C10.3133 7.20618 10.4654 7.20249 10.6136 7.19392C14.9604 6.95875 18.0763 4.97212 19.8781 1.28909C20.0189 1.00125 20.1144 1 20.2357 1C20.4121 1 20.4793 1.0441 20.5491 1.207C22.0801 4.79205 25.9289 7.20128 30.1263 7.20128C31.3781 7.20128 32.6065 6.98691 33.7775 6.56435C33.9 6.52026 34.0186 6.497 34.1178 6.497C34.3076 6.497 34.3896 6.56438 34.4288 6.753C34.4386 6.79832 34.4389 6.90853 34.4389 6.99794V7.02979C34.4389 8.22766 34.4436 9.42552 34.4473 10.6234C34.4571 13.4821 34.4668 16.4376 34.424 19.3392C34.375 22.645 34.0026 25.2833 33.253 27.6435C31.9534 31.7307 29.38 34.7891 25.6038 36.7341C24.3558 37.3771 23.0013 37.9136 21.6908 38.4342C21.2449 38.6105 20.7846 38.7943 20.3314 38.9792C20.3118 38.9878 20.2563 39 20.195 39Z" stroke="white" stroke-width="2" stroke-linecap="round"/>
<path d="M12.1074 21.4531C13.5895 22.9376 15.1011 24.4429 16.5623 25.8992L17.161 26.4957C17.368 26.7015 17.5582 26.8191 17.6819 26.8191L17.6795 26.8179C17.8008 26.8179 17.9858 26.704 18.1855 26.5043L24.5667 20.1402C24.9954 19.7127 25.4251 19.2853 25.8537 18.8578C26.8667 17.8486 27.9151 16.8038 28.9415 15.7749" stroke="white" stroke-width="2" stroke-linecap="round"/>
</svg>
