<svg width="40" height="40" viewBox="0 0 40 40" fill="none" xmlns="http://www.w3.org/2000/svg">
<path d="M17.3687 10.7847V13.7489M17.3687 10.7847C17.4714 10.2648 17.9536 9.87012 18.5329 9.87012H21.4274C21.984 9.87012 22.4521 10.2356 22.5784 10.7263M17.3687 10.7847C13.2639 11.8877 10.4203 15.3605 10.4203 19.3202V22.5368M22.5784 13.7489V10.7263M22.5784 10.7263C24.5517 11.2095 26.3356 12.2757 27.6241 13.7489C28.9984 15.32 29.7557 17.298 29.7557 19.3193V22.5368M8.64062 23.6963H31.4406" stroke="white" stroke-width="2" stroke-linecap="round"/>
<path d="M23.1061 2.51309L22.9453 2.41182C21.3423 1.40793 20.6579 1 19.8066 1C18.9553 1 18.2634 1.41113 16.6459 2.42466L16.5142 2.50662C14.0342 3.97791 11.3387 4.93362 8.49248 5.34642C6.21808 5.73352 4.94583 6.06283 4.31459 6.78402C3.68816 7.49879 3.57422 8.74516 3.57422 10.9441V19.6402C3.57422 26.5421 8.39964 33.1517 16.8114 37.7728L17.1134 37.9398C18.4835 38.6948 19.0678 39 19.8035 39C20.5391 39 21.1243 38.6932 22.4944 37.9398L22.7979 37.7728C31.2113 33.1533 36.0374 26.5454 36.0374 19.6418V10.9457C36.0374 8.74683 35.9235 7.49879 35.2971 6.78402C34.669 6.06604 33.3523 5.72549 31.1341 5.34642C28.2814 4.93202 25.4993 3.93054 23.0257 2.46245L23.1061 2.51309Z" stroke="white" stroke-width="2" stroke-linecap="round"/>
</svg>
