<svg width="32" height="32" viewBox="0 0 32 32" fill="none" xmlns="http://www.w3.org/2000/svg">
<path d="M7.92308 6.69527V4.34764C7.92308 3.05314 8.9583 2 10.2308 2H21.7692C23.0417 2 24.0769 3.05314 24.0769 4.34764V6.69527M7.92308 6.69527H3.30769C2.03523 6.69527 1 7.74842 1 9.04291V26.6524C1 27.9469 2.03523 29 3.30769 29H28.6923C29.9648 29 31 27.9469 31 26.6524V9.04291C31 7.74842 29.9648 6.69527 28.6923 6.69527H24.0769M7.92308 6.69527H24.0769M1.5 16.5H10.2308L31 16.5M10.2308 19.5V13.9971M22 13.9971V19.5" stroke="#E31E26" stroke-width="2" stroke-linecap="round"/>
</svg>
