<svg width="32" height="32" viewBox="0 0 32 32" fill="none" xmlns="http://www.w3.org/2000/svg">
<path d="M16.5 29C16.1062 29.0006 15.7176 28.9167 15.3646 28.7547C15.0115 28.5928 14.7035 28.3572 14.4647 28.0664C10.9301 23.8108 5 16.0231 5 11.6819C5 10.2791 5.29746 8.89007 5.87539 7.59409C6.45331 6.2981 7.3004 5.12054 8.36827 4.12864C9.43614 3.13674 10.7039 2.34992 12.0991 1.81311C13.4944 1.27629 14.9898 1 16.5 1C18.0102 1 19.5056 1.27629 20.9009 1.81311C22.2961 2.34992 23.5639 3.13674 24.6317 4.12864C25.6996 5.12054 26.5467 6.2981 27.1246 7.59409C27.7025 8.89007 28 10.2791 28 11.6819C28 16.0231 22.0699 23.8108 18.5353 28.0664C18.2965 28.3572 17.9885 28.5928 17.6354 28.7547C17.2824 28.9167 16.8938 29.0006 16.5 29Z" stroke="#E31E26" stroke-width="2"/>
<path d="M16.4467 15.9959C15.4575 15.9959 14.4906 15.7025 13.6681 15.153C12.8456 14.6034 12.2046 13.8223 11.826 12.9084C11.4475 11.9945 11.3484 10.9889 11.5414 10.0187C11.7344 9.04857 12.2107 8.1574 12.9102 7.45795C13.6096 6.75849 14.5008 6.28215 15.471 6.08918C16.4412 5.8962 17.4468 5.99524 18.3607 6.37378C19.2745 6.75233 20.0556 7.39337 20.6052 8.21584C21.1548 9.03832 21.4481 10.0053 21.4481 10.9945C21.4481 12.3209 20.9212 13.593 19.9832 14.531C19.0453 15.4689 17.7732 15.9959 16.4467 15.9959Z" stroke="#E31E26" stroke-width="2"/>
</svg>
