<svg width="290" height="159" viewBox="0 0 290 159" fill="none" xmlns="http://www.w3.org/2000/svg">
<path d="M94.569 6.24377L94.569 32.5585C93.9141 32.5585 93.3564 32.5585 92.78 32.5585C74.5023 32.5585 56.2245 32.5882 37.9568 32.5288C36.3069 32.5288 35.6311 32.8954 35.4422 34.6589C34.7465 41.0692 33.8619 47.4497 33.0569 53.8501C33.0271 54.0482 33.0569 54.2563 33.0569 54.6625C33.9613 54.4644 34.7266 54.3058 35.4919 54.1176C49.4363 50.6103 63.1023 50.9669 76.1322 57.5754C90.2257 64.7287 98.7731 76.3702 102.262 91.5983C105.611 106.222 104.11 120.37 96.6263 133.577C91.1798 143.178 83.1591 150.103 72.8723 154.026C54.7635 160.932 37.3008 159.169 20.8817 148.865C14.481 144.852 9.74016 139.115 5.94348 132.616C3.29973 128.088 1.06347 123.422 0 117.953C2.82266 117.953 5.59562 117.953 8.36858 117.953C14.1928 117.953 20.017 118.002 25.8313 117.953C27.2227 117.943 28.0278 118.319 28.7633 119.607C32.4307 125.998 38.2152 129.465 45.2818 130.922C53.5609 132.626 61.4127 131.695 68.3202 126.453C73.0512 122.867 75.5061 117.863 76.6789 112.157C78.2294 104.577 77.5436 97.2654 73.737 90.4391C69.8111 83.4046 63.639 79.501 55.6878 78.6291C48.2336 77.8068 41.008 78.5895 34.7465 83.2659C33.3849 84.2864 32.2717 85.6339 30.9697 86.7435C30.4529 87.1795 29.7274 87.6352 29.0913 87.6451C20.8419 87.6946 12.5926 87.6748 4.34331 87.6451C2.20644 87.6451 2.14681 87.5857 2.41516 85.4159C3.7271 74.8642 5.06886 64.3126 6.39073 53.751C8.10023 40.0487 9.79979 26.3464 11.5093 12.6441C12.1093 7.92118 11.5 12.6598 12.1056 8.00733C12.1553 6.61035 12.6523 6.20414 14.0437 6.21404C21.4283 6.2834 28.813 6.25367 36.1976 6.25367C54.9027 6.25367 73.6078 6.25367 92.3128 6.25367C92.9986 6.25367 93.6943 6.25367 94.569 6.25367V6.24377Z" fill="url(#paint0_linear_1166_37453)"/>
<path d="M101.844 75.7066C101.159 74.6366 100.632 73.8638 100.155 73.0514C95.6326 65.4522 89.5103 59.4581 81.897 54.96C79.3527 53.454 79.2334 53.3748 80.4261 50.6799C82.1654 46.7565 84.1333 42.9321 85.972 39.0483C86.4888 37.9684 87.274 37.6711 88.4369 37.6909C91.667 37.7603 94.9071 37.6711 98.1373 37.7504C99.4293 37.7801 99.8169 37.3343 99.7971 36.0859C99.7474 31.786 99.7474 27.486 99.8468 23.1861C99.8666 22.3737 100.254 21.3433 100.841 20.8182C117.657 5.68919 137.396 -1.30562 160.017 0.200349C179.706 1.50816 196.572 9.27577 210.517 23.1465C223.229 35.7986 230.693 51.1059 233.068 68.8704C233.297 70.5646 233.496 72.2588 233.724 74.1016C233.098 74.1908 232.641 74.2998 232.174 74.2998C224.193 74.3295 216.212 74.3394 208.241 74.379C207.197 74.379 206.73 74.1115 206.591 72.9721C204.852 58.8735 198.471 47.3311 187.439 38.3151C168.266 22.6313 140.457 22.661 121.345 38.4538C109.855 47.9454 103.455 60.1318 102.113 74.9437C102.113 75.0428 102.043 75.1419 101.844 75.7066Z" fill="url(#paint1_linear_1166_37453)"/>
<path d="M100.552 137.005C106.098 127.305 108.781 116.932 109 105.399C109.686 106.44 110.113 107.133 110.59 107.797C121.235 122.995 135.865 131.268 154.441 131.328C171.168 131.387 184.973 124.452 195.578 111.403C195.995 110.888 196.781 110.393 197.407 110.383C207.057 110.314 216.698 110.324 226.349 110.324C226.558 110.324 226.756 110.413 227.263 110.541C217.553 131.427 202.207 146.1 180.451 153.64C150.624 163.974 119.893 155.205 100.552 136.985V137.005Z" fill="url(#paint2_linear_1166_37453)"/>
<path d="M281.6 99.2693V92.4946L282.316 94.9383L276.512 85.7598H279.772L283.787 92.6337H282.296L286.312 85.7598H289.472L283.727 94.9383L284.423 92.4946V99.2693H281.6Z" fill="#333333"/>
<path d="M263.697 92.2369C263.697 90.8197 263.969 89.6078 264.512 88.6012C265.069 87.5814 265.857 86.8 266.878 86.2569C267.898 85.7139 269.091 85.4424 270.456 85.4424C271.529 85.4424 272.49 85.6212 273.338 85.9788C274.186 86.3231 274.875 86.8397 275.405 87.5284C275.935 88.2171 276.253 89.078 276.359 90.1111H273.418C273.325 89.3827 273 88.8131 272.444 88.4025C271.887 87.992 271.178 87.7867 270.317 87.7867C269.164 87.7867 268.263 88.1641 267.613 88.9191C266.964 89.674 266.639 90.7535 266.639 92.1574V92.8726C266.639 94.3428 266.977 95.4421 267.653 96.1705C268.342 96.8857 269.237 97.2433 270.336 97.2433C271.224 97.2433 271.947 97.0248 272.503 96.5877C273.06 96.1374 273.391 95.5281 273.497 94.76H276.399C276.306 95.7665 275.995 96.6341 275.465 97.3625C274.935 98.0777 274.233 98.6274 273.358 99.0115C272.483 99.3956 271.476 99.5876 270.336 99.5876C268.972 99.5876 267.785 99.3227 266.778 98.7929C265.784 98.2632 265.022 97.5016 264.492 96.5082C263.962 95.5149 263.697 94.3295 263.697 92.9521V92.2369Z" fill="#333333"/>
<path d="M256.432 86.1571L252.297 99.2693H249.415L253.888 85.7598H258.738L263.27 99.2693H260.248L256.114 86.1571H256.432ZM252.516 95.7528V93.5079H260.07V95.7528H256.313H252.516Z" fill="#333333"/>
<path d="M241.517 99.5876C240.258 99.5876 239.165 99.3227 238.237 98.7929C237.323 98.2632 236.614 97.5148 236.11 96.548C235.62 95.5679 235.375 94.4024 235.375 93.0514V92.3362C235.375 90.8396 235.667 89.5813 236.25 88.5615C236.833 87.5417 237.641 86.7668 238.675 86.2371C239.708 85.7073 240.894 85.4424 242.233 85.4424C243.373 85.4424 244.36 85.6212 245.195 85.9788C246.03 86.3364 246.692 86.8397 247.182 87.4887C247.686 88.1377 248.004 88.9058 248.137 89.7932H245.215C245.095 89.1442 244.744 88.641 244.161 88.2833C243.591 87.9125 242.889 87.7271 242.054 87.7271C240.901 87.7271 239.987 88.1112 239.311 88.8794C238.648 89.6343 238.317 90.727 238.317 92.1574V92.8726C238.317 94.2898 238.635 95.3825 239.271 96.1506C239.92 96.9188 240.835 97.3029 242.014 97.3029C242.77 97.3029 243.392 97.1639 243.883 96.8857C244.386 96.5943 244.764 96.2036 245.016 95.7136C245.281 95.2235 245.413 94.6672 245.413 94.0447V92.8925L247.043 93.9255H241.815V91.7601H248.216V99.2697H245.811V93.8659H246.507C246.507 95.0447 246.334 96.0646 245.99 96.9254C245.658 97.7731 245.122 98.4287 244.38 98.8923C243.651 99.3558 242.697 99.5876 241.517 99.5876Z" fill="#333333"/>
<path d="M224.147 99.2693V85.7598H233.788V88.1041H226.97V91.1437H233.291V93.4681H226.97V96.925H233.788V99.2693H224.147Z" fill="#333333"/>
<path d="M213.588 99.2693V85.7598H216.411V96.9051H222.752V99.2693H213.588Z" fill="#333333"/>
<path d="M204.031 99.2693L199.877 93.5079H203.077L207.45 99.2693H204.031ZM195.961 99.2693V85.7598H202.302C203.813 85.7598 204.999 86.1306 205.86 86.8723C206.721 87.614 207.152 88.6074 207.152 89.8523V90.051C207.152 90.8854 206.953 91.6139 206.556 92.2364C206.158 92.8456 205.588 93.3158 204.846 93.6469C204.117 93.978 203.249 94.1436 202.242 94.1436H198.784V99.2693H195.961ZM198.784 92.0178H202.083C202.772 92.0178 203.309 91.8589 203.693 91.541C204.078 91.2232 204.27 90.753 204.27 90.1305V89.9318C204.27 89.3093 204.064 88.8325 203.654 88.5014C203.243 88.157 202.64 87.9849 201.845 87.9849H198.784V92.0178Z" fill="#333333"/>
<path d="M187.829 86.1571L183.695 99.2693H180.812L185.285 85.7598H190.135L194.667 99.2693H191.646L187.511 86.1571H187.829ZM183.913 95.7528V93.5079H191.467V95.7528H187.71H183.913Z" fill="#333333"/>
<path d="M170.124 99.2693V85.7598H179.765V88.1041H172.947V91.1437H179.268V93.4681H172.947V96.925H179.765V99.2693H170.124Z" fill="#333333"/>
<path d="M161.091 99.2693V92.4946L161.806 94.9383L156.002 85.7598H159.262L163.277 92.6337H161.786L165.802 85.7598H168.962L163.218 94.9383L163.913 92.4946V99.2693H161.091Z" fill="#333333"/>
<path d="M269.368 30.2696C269.368 30.6797 269.035 31.0121 268.625 31.0121H255.15C254.74 31.0121 254.408 31.3445 254.408 31.7546V45.6251C254.408 46.0352 254.075 46.3676 253.665 46.3676H244.702C244.292 46.3676 243.96 46.0352 243.96 45.6251V31.7546C243.96 31.3445 243.627 31.0121 243.217 31.0121H229.742C229.332 31.0121 229 30.6797 229 30.2696V22.098C229 21.688 229.332 21.3555 229.742 21.3555H243.217C243.627 21.3555 243.96 21.0231 243.96 20.613V6.74249C243.96 6.33243 244.292 6 244.702 6H253.665C254.075 6 254.408 6.33243 254.408 6.74249V20.613C254.408 21.0231 254.74 21.3555 255.15 21.3555H268.625C269.035 21.3555 269.368 21.688 269.368 22.098V30.2696Z" fill="url(#paint3_linear_1166_37453)"/>
<defs>
<linearGradient id="paint0_linear_1166_37453" x1="51.9762" y1="6.21387" x2="51.9762" y2="158.16" gradientUnits="userSpaceOnUse">
<stop stop-color="#E31E26" stop-opacity="0.2"/>
<stop offset="1" stop-color="#E31E26"/>
</linearGradient>
<linearGradient id="paint1_linear_1166_37453" x1="156.71" y1="0" x2="156.71" y2="75.7066" gradientUnits="userSpaceOnUse">
<stop stop-color="#E31E26" stop-opacity="0.2"/>
<stop offset="1" stop-color="#E31E26"/>
</linearGradient>
<linearGradient id="paint2_linear_1166_37453" x1="163.907" y1="105.399" x2="163.907" y2="158.046" gradientUnits="userSpaceOnUse">
<stop stop-color="#E31E26" stop-opacity="0.2"/>
<stop offset="1" stop-color="#E31E26"/>
</linearGradient>
<linearGradient id="paint3_linear_1166_37453" x1="249.184" y1="6" x2="249.184" y2="46.3676" gradientUnits="userSpaceOnUse">
<stop stop-color="#E31E26" stop-opacity="0.2"/>
<stop offset="1" stop-color="#E31E26"/>
</linearGradient>
</defs>
</svg>
