<svg width="841" height="230" viewBox="0 0 841 230" fill="none" xmlns="http://www.w3.org/2000/svg">
<g opacity="0.1" clip-path="url(#clip0_1166_37244)">
<path d="M176.365 0.461914L269.087 247.323L189.886 247.323L177.633 207.044L178.312 206.366H89.9131L89.8154 206.697L77.8213 247.237H0.667969L93.4736 0.461914L176.365 0.461914ZM133.498 64.0684L106.421 153.135L106.239 153.731H161.898L161.715 153.134L134.382 64.0674L133.938 62.6201L133.498 64.0684Z" fill="url(#paint0_linear_1166_37244)" fill-opacity="0.41" stroke="white" stroke-width="0.924388"/>
<path d="M437.584 0.461914C461.439 0.461914 479.617 6.3192 492.276 18.0498C504.954 29.7979 511.287 44.3211 511.287 61.6484C511.287 76.1886 506.725 88.6816 497.691 99.0664L497.69 99.0674C491.713 105.97 482.851 111.467 471.151 115.537L469.66 116.056L471.196 116.423C488.928 120.665 501.936 128.033 510.197 138.316L510.198 138.318C518.549 148.609 522.697 161.614 522.697 177.281C522.697 190.063 519.735 201.477 513.819 211.704C507.899 221.853 499.783 229.969 489.465 235.889L489.462 235.892C483.354 239.475 474.123 242.055 461.801 243.759L460.599 243.921C443.306 246.136 431.928 247.323 426.344 247.323L294.654 247.323L294.654 0.461914L437.584 0.461914ZM371.046 194.651H371.507V195.029L410.506 195.029C423.73 195.029 433.158 192.731 438.654 187.933L438.653 187.932C444.216 183.149 446.902 176.715 446.902 168.767C446.902 161.313 444.12 155.305 438.732 150.786L438.729 150.784L438.203 150.365C432.636 146.112 423.308 144.036 410.336 144.036L371.046 144.036V194.651ZM371.046 97.2412H371.507V97.6182H404.801C416.744 97.6181 425.238 95.5766 430.054 91.373C434.864 87.1754 437.195 81.0717 437.195 73.2285C437.195 65.8831 434.856 60.126 430.054 55.9355C425.238 51.7319 416.914 49.7764 405.312 49.7764L371.046 49.7764V97.2412Z" fill="url(#paint1_linear_1166_37244)" fill-opacity="0.41" stroke="white" stroke-width="0.924388"/>
<path d="M662.786 0.461914L701.526 150.915L702.421 150.914L740.905 0.461914L840.731 0.461914V247.323L778.9 247.323V58.8379L777.99 58.7236L729.799 247.323H673.722L625.616 58.7236L624.706 58.8379V247.323H562.96V0.461914L662.786 0.461914Z" fill="url(#paint2_linear_1166_37244)" fill-opacity="0.41" stroke="white" stroke-width="0.924388"/>
</g>
<defs>
<linearGradient id="paint0_linear_1166_37244" x1="133.617" y1="186.495" x2="133.617" y2="51.0724" gradientUnits="userSpaceOnUse">
<stop stop-color="white"/>
<stop offset="1" stop-color="white" stop-opacity="0"/>
</linearGradient>
<linearGradient id="paint1_linear_1166_37244" x1="407.606" y1="186.495" x2="407.606" y2="51.0724" gradientUnits="userSpaceOnUse">
<stop stop-color="white"/>
<stop offset="1" stop-color="white" stop-opacity="0"/>
</linearGradient>
<linearGradient id="paint2_linear_1166_37244" x1="700.544" y1="186.495" x2="700.544" y2="51.0724" gradientUnits="userSpaceOnUse">
<stop stop-color="white"/>
<stop offset="1" stop-color="white" stop-opacity="0"/>
</linearGradient>
<clipPath id="clip0_1166_37244">
<rect width="841" height="230" fill="white"/>
</clipPath>
</defs>
</svg>
