<svg width="1288" height="379" viewBox="0 0 1288 379" fill="none" xmlns="http://www.w3.org/2000/svg">

  <!-- static watermark, unchanged -->
  <g opacity="0.2" clip-path="url(#clip0_1166_37201)">
    <path d="M270.105 0.708008L412.108 378.777H290.812L272.048 317.089L273.087 316.052H137.703L137.553 316.559L119.186 378.647H1.02246L143.155 0.708008H270.105ZM204.453 98.1211L162.984 234.527L162.706 235.441H247.949L247.668 234.525L205.808 98.1191L205.128 95.9043L204.453 98.1211Z" fill="url(#paint0_linear_1166_37201)" fill-opacity="0.41" stroke="white" stroke-width="1.41571"/>
    <path d="M670.163 0.708008C706.698 0.708008 734.539 9.6778 753.926 27.6436C773.342 45.6358 783.04 67.8781 783.04 94.415C783.04 116.684 776.055 135.816 762.219 151.721L762.218 151.722C753.064 162.294 739.492 170.713 721.573 176.946L719.288 177.74L721.641 178.303C748.797 184.8 768.72 196.084 781.371 211.834L781.373 211.836C794.163 227.597 800.515 247.513 800.515 271.508C800.515 290.473 796.259 307.471 787.754 322.756L786.917 324.229C777.851 339.771 765.421 352.201 749.62 361.267L749.615 361.27C740.26 366.757 726.124 370.71 707.253 373.319L705.411 373.567C678.927 376.96 661.503 378.777 652.951 378.777H451.266V0.708008H670.163ZM568.26 298.111H568.968V298.688H628.695C648.944 298.688 663.38 295.17 671.798 287.823L671.799 287.824C680.322 280.5 684.434 270.643 684.434 258.468C684.434 247.409 680.437 238.429 672.685 231.586L671.923 230.931L671.918 230.927C663.502 223.98 648.941 220.594 628.434 220.594H568.26V298.111ZM568.26 148.925H568.968V149.503H619.957C638.248 149.503 651.256 146.376 658.632 139.938C665.998 133.51 669.568 124.162 669.568 112.15C669.568 100.901 665.986 92.0838 658.632 85.666C651.255 79.2282 638.509 76.2324 620.74 76.2324H568.26V148.925Z" fill="url(#paint1_linear_1166_37201)" fill-opacity="0.41" stroke="white" stroke-width="1.41571"/>
    <path d="M1015.06 0.708008L1074.39 231.128L1075.76 231.127L1134.7 0.708008H1287.59V378.777H1192.89V90.1113L1191.5 89.9365L1117.69 378.777H1031.81L958.138 89.9365L956.743 90.1113V378.777H862.18V0.708008H1015.06Z" fill="url(#paint2_linear_1166_37201)" fill-opacity="0.41" stroke="white" stroke-width="1.41571"/>
  </g>

  <!-- traveling piece of line, running along each letter's own outline -->
  <path pathLength="1" opacity="0.45" fill="none" stroke="#ffffff" stroke-width="1.41571" stroke-linecap="round" stroke-dasharray="0.05 0.95" filter="url(#glow)"
        d="M270.105 0.708008L412.108 378.777H290.812L272.048 317.089L273.087 316.052H137.703L137.553 316.559L119.186 378.647H1.02246L143.155 0.708008H270.105ZM204.453 98.1211L162.984 234.527L162.706 235.441H247.949L247.668 234.525L205.808 98.1191L205.128 95.9043L204.453 98.1211Z">
    <animate attributeName="stroke-dashoffset" values="1;0" dur="5s" repeatCount="indefinite"/>
  </path>

  <path pathLength="1" opacity="0.45" fill="none" stroke="#ffffff" stroke-width="1.41571" stroke-linecap="round" stroke-dasharray="0.05 0.95" filter="url(#glow)"
        d="M670.163 0.708008C706.698 0.708008 734.539 9.6778 753.926 27.6436C773.342 45.6358 783.04 67.8781 783.04 94.415C783.04 116.684 776.055 135.816 762.219 151.721L762.218 151.722C753.064 162.294 739.492 170.713 721.573 176.946L719.288 177.74L721.641 178.303C748.797 184.8 768.72 196.084 781.371 211.834L781.373 211.836C794.163 227.597 800.515 247.513 800.515 271.508C800.515 290.473 796.259 307.471 787.754 322.756L786.917 324.229C777.851 339.771 765.421 352.201 749.62 361.267L749.615 361.27C740.26 366.757 726.124 370.71 707.253 373.319L705.411 373.567C678.927 376.96 661.503 378.777 652.951 378.777H451.266V0.708008H670.163ZM568.26 298.111H568.968V298.688H628.695C648.944 298.688 663.38 295.17 671.798 287.823L671.799 287.824C680.322 280.5 684.434 270.643 684.434 258.468C684.434 247.409 680.437 238.429 672.685 231.586L671.923 230.931L671.918 230.927C663.502 223.98 648.941 220.594 628.434 220.594H568.26V298.111ZM568.26 148.925H568.968V149.503H619.957C638.248 149.503 651.256 146.376 658.632 139.938C665.998 133.51 669.568 124.162 669.568 112.15C669.568 100.901 665.986 92.0838 658.632 85.666C651.255 79.2282 638.509 76.2324 620.74 76.2324H568.26V148.925Z">
    <animate attributeName="stroke-dashoffset" values="1;0" dur="6.4s" begin="-1.6s" repeatCount="indefinite"/>
  </path>

  <path pathLength="1" opacity="0.45" fill="none" stroke="#ffffff" stroke-width="1.41571" stroke-linecap="round" stroke-dasharray="0.05 0.95" filter="url(#glow)"
        d="M1015.06 0.708008L1074.39 231.128L1075.76 231.127L1134.7 0.708008H1287.59V378.777H1192.89V90.1113L1191.5 89.9365L1117.69 378.777H1031.81L958.138 89.9365L956.743 90.1113V378.777H862.18V0.708008H1015.06Z">
    <animate attributeName="stroke-dashoffset" values="1;0" dur="7.2s" begin="-3.4s" repeatCount="indefinite"/>
  </path>

  <defs>
    <linearGradient id="paint0_linear_1166_37201" x1="204.636" y1="285.619" x2="204.636" y2="78.2179" gradientUnits="userSpaceOnUse">
      <stop stop-color="white"/>
      <stop offset="1" stop-color="white" stop-opacity="0"/>
    </linearGradient>
    <linearGradient id="paint1_linear_1166_37201" x1="624.253" y1="285.619" x2="624.253" y2="78.2179" gradientUnits="userSpaceOnUse">
      <stop stop-color="white"/>
      <stop offset="1" stop-color="white" stop-opacity="0"/>
    </linearGradient>
    <linearGradient id="paint2_linear_1166_37201" x1="1072.89" y1="285.619" x2="1072.89" y2="78.2179" gradientUnits="userSpaceOnUse">
      <stop stop-color="white"/>
      <stop offset="1" stop-color="white" stop-opacity="0"/>
    </linearGradient>
    <clipPath id="clip0_1166_37201">
      <rect width="1288" height="379" fill="white"/>
    </clipPath>
    <filter id="glow" x="-50%" y="-50%" width="200%" height="200%">
      <feGaussianBlur stdDeviation="2.2" result="blur"/>
      <feMerge>
        <feMergeNode in="blur"/>
        <feMergeNode in="SourceGraphic"/>
      </feMerge>
    </filter>
  </defs>
</svg>
