<svg width="853" height="225" viewBox="0 0 853 225" fill="none" xmlns="http://www.w3.org/2000/svg">
<g opacity="0.2" clip-path="url(#clip0_1166_32566)">
<path d="M178.882 0.468109L272.926 250.851H192.595L180.168 209.997L180.856 209.31H91.1963L91.0967 209.646L78.9326 250.765H0.676758L94.8076 0.468109H178.882ZM135.402 64.9818L107.938 155.319L107.755 155.924H164.209L164.022 155.318L136.3 64.9808L135.85 63.513L135.402 64.9818Z" fill="url(#paint0_linear_1166_32566)" fill-opacity="0.41" stroke="white" stroke-width="0.937577"/>
<path d="M443.827 0.468018C468.022 0.468018 486.46 6.40889 499.3 18.3069C512.158 30.2226 518.582 44.953 518.582 62.5276C518.582 77.275 513.955 89.9459 504.793 100.479L504.792 100.48C498.73 107.481 489.741 113.057 477.874 117.185L476.361 117.711L477.919 118.083C495.904 122.386 509.098 129.859 517.476 140.289L517.477 140.291C525.947 150.729 530.155 163.919 530.155 179.81C530.155 192.774 527.151 204.351 521.15 214.724C515.146 225.017 506.914 233.25 496.449 239.254L496.445 239.256C490.25 242.891 480.888 245.508 468.39 247.237L467.171 247.401C449.631 249.647 438.091 250.851 432.427 250.851H298.858V0.468018H443.827ZM376.34 197.429H376.808V197.811H416.363C429.775 197.811 439.337 195.479 444.912 190.613C450.554 185.762 453.278 179.236 453.278 171.174C453.278 163.614 450.457 157.52 444.992 152.937L444.989 152.935L444.455 152.51C438.809 148.196 429.347 146.091 416.19 146.091H376.34V197.429ZM376.34 99.01H410.577C422.69 99.01 431.305 96.9396 436.19 92.676C441.068 88.4185 443.432 82.2278 443.432 74.2727C443.432 66.8223 441.06 60.983 436.19 56.7327C431.305 52.4691 422.863 50.4856 411.095 50.4856H376.34V99.01Z" fill="url(#paint1_linear_1166_32566)" fill-opacity="0.41" stroke="white" stroke-width="0.937577"/>
<path d="M672.244 0.468018L711.535 153.068L712.443 153.067L751.477 0.468018H852.727V250.851H790.014V59.677L789.091 59.5608L740.212 250.851H683.335L634.543 59.5608L633.62 59.677V250.851H570.993V0.468018H672.244Z" fill="url(#paint2_linear_1166_32566)" fill-opacity="0.41" stroke="white" stroke-width="0.937577"/>
</g>
<defs>
<linearGradient id="paint0_linear_1166_32566" x1="135.524" y1="189.156" x2="135.523" y2="51.8005" gradientUnits="userSpaceOnUse">
<stop stop-color="white"/>
<stop offset="1" stop-color="white" stop-opacity="0"/>
</linearGradient>
<linearGradient id="paint1_linear_1166_32566" x1="413.422" y1="189.155" x2="413.422" y2="51.8004" gradientUnits="userSpaceOnUse">
<stop stop-color="white"/>
<stop offset="1" stop-color="white" stop-opacity="0"/>
</linearGradient>
<linearGradient id="paint2_linear_1166_32566" x1="710.54" y1="189.155" x2="710.54" y2="51.8004" gradientUnits="userSpaceOnUse">
<stop stop-color="white"/>
<stop offset="1" stop-color="white" stop-opacity="0"/>
</linearGradient>
<clipPath id="clip0_1166_32566">
<rect width="853" height="225" fill="white"/>
</clipPath>
</defs>
</svg>
