<svg width="102" height="49" viewBox="0 0 102 49" fill="none" xmlns="http://www.w3.org/2000/svg">
<path d="M29.1123 1.92265L29.1123 10.0234C28.9107 10.0234 28.739 10.0234 28.5616 10.0234C22.9349 10.0234 17.3083 10.0326 11.6847 10.0143C11.1768 10.0143 10.9687 10.1271 10.9106 10.67C10.6964 12.6434 10.4241 14.6076 10.1763 16.5779C10.1671 16.6389 10.1763 16.7029 10.1763 16.828C10.4547 16.767 10.6903 16.7182 10.9259 16.6602C15.2186 15.5805 19.4255 15.6903 23.4367 17.7247C27.7752 19.9268 30.4065 23.5105 31.4804 28.1983C32.5115 32.7001 32.0495 37.0555 29.7456 41.1212C28.069 44.0766 25.5998 46.2085 22.4331 47.4163C16.8585 49.5422 11.4828 48.9993 6.42826 45.8273C4.45787 44.592 2.99843 42.8261 1.82965 40.8253C1.01579 39.4315 0.327379 37.9949 0 36.3113C0.868932 36.3113 1.72257 36.3113 2.5762 36.3113C4.36914 36.3113 6.16208 36.3266 7.95195 36.3113C8.3803 36.3083 8.62813 36.4242 8.85454 36.8207C9.98354 38.7879 11.7642 39.8554 13.9396 40.3038C16.4883 40.8284 18.9054 40.5417 21.0318 38.9282C22.4882 37.8241 23.2439 36.2839 23.605 34.5271C24.0823 32.1938 23.8712 29.9429 22.6993 27.8415C21.4908 25.676 19.5907 24.4743 17.1431 24.2059C14.8483 23.9527 12.624 24.1937 10.6964 25.6333C10.2773 25.9474 9.93459 26.3622 9.53378 26.7038C9.37468 26.838 9.15132 26.9783 8.95551 26.9814C6.41602 26.9966 3.87654 26.9905 1.33705 26.9814C0.679236 26.9814 0.660878 26.9631 0.743488 26.2951C1.14736 23.0469 1.56041 19.7987 1.96734 16.5474C2.49359 12.3292 3.01679 8.11108 3.54304 3.89294C3.72776 2.43903 3.54018 3.89776 3.72662 2.46555C3.74192 2.0355 3.8949 1.91045 4.32324 1.9135C6.59654 1.93485 8.86984 1.9257 11.1431 1.9257C16.9013 1.9257 22.6595 1.9257 28.4178 1.9257C28.6289 1.9257 28.843 1.9257 29.1123 1.9257V1.92265Z" fill="url(#paint0_linear_1166_37516)"/>
<path d="M31.3518 23.3057C31.1407 22.9763 30.9785 22.7384 30.8317 22.4883C29.4395 20.1489 27.5548 18.3037 25.2111 16.919C24.4279 16.4554 24.3912 16.431 24.7583 15.6014C25.2937 14.3936 25.8996 13.2163 26.4656 12.0207C26.6247 11.6883 26.8664 11.5968 27.2244 11.6029C28.2187 11.6242 29.2162 11.5968 30.2106 11.6212C30.6083 11.6303 30.7276 11.4931 30.7215 11.1088C30.7062 9.78506 30.7062 8.46136 30.7368 7.13766C30.7429 6.88756 30.8623 6.57036 31.0428 6.40871C36.2197 1.75137 42.2961 -0.401923 49.2598 0.0616757C55.3209 0.464275 60.513 2.85547 64.8057 7.12546C68.7189 11.0203 71.0167 15.7325 71.748 21.2012C71.8183 21.7227 71.8795 22.2443 71.9499 22.8116C71.7571 22.839 71.6164 22.8726 71.4726 22.8726C69.0157 22.8817 66.5588 22.8848 64.105 22.897C63.7838 22.897 63.64 22.8146 63.5971 22.4639C63.0617 18.1237 61.0974 14.5705 57.7012 11.795C51.7992 6.96686 43.2384 6.97601 37.3548 11.8377C33.8179 14.7596 31.8475 18.5111 31.4344 23.0708C31.4344 23.1013 31.413 23.1318 31.3518 23.3057Z" fill="url(#paint1_linear_1166_37516)"/>
<path d="M30.9545 42.1754C32.6617 39.1895 33.4878 35.9961 33.5551 32.446C33.7663 32.7662 33.8978 32.9797 34.0447 33.1841C37.3215 37.8627 41.8253 40.4095 47.5437 40.4278C52.6931 40.4461 56.9429 38.3111 60.2075 34.2943C60.336 34.1357 60.5777 33.9832 60.7705 33.9801C63.7414 33.9588 66.7092 33.9618 69.6801 33.9618C69.7443 33.9618 69.8055 33.9893 69.9616 34.0289C66.9723 40.4583 62.2483 44.9753 55.5508 47.2964C46.3688 50.4775 36.9085 47.7783 30.9545 42.1693V42.1754Z" fill="url(#paint2_linear_1166_37516)"/>
<path d="M97.8021 31.4719V28.4727L98.1189 29.5545L95.5492 25.491H96.9924L98.7701 28.5342H98.1101L99.8877 25.491H101.287L98.7437 29.5545L99.0517 28.4727V31.4719H97.8021Z" fill="#333333"/>
<path d="M89.8753 28.3581C89.8753 27.7307 89.9956 27.1941 90.2361 26.7485C90.4825 26.297 90.8316 25.951 91.2834 25.7106C91.7351 25.4702 92.2631 25.35 92.8674 25.35C93.3426 25.35 93.768 25.4292 94.1435 25.5875C94.519 25.7399 94.824 25.9686 95.0587 26.2735C95.2934 26.5784 95.4342 26.9596 95.4811 27.4169H94.1787C94.1376 27.0944 93.9939 26.8423 93.7475 26.6605C93.5011 26.4788 93.1872 26.3879 92.8058 26.3879C92.2954 26.3879 91.8965 26.555 91.609 26.8892C91.3215 27.2234 91.1778 27.7013 91.1778 28.3229V28.6395C91.1778 29.2904 91.3274 29.7771 91.6266 30.0996C91.9317 30.4162 92.3277 30.5745 92.8146 30.5745C93.2077 30.5745 93.5275 30.4778 93.7739 30.2843C94.0203 30.0849 94.1669 29.8152 94.2139 29.4751H95.4987C95.4577 29.9207 95.3198 30.3048 95.0851 30.6273C94.8504 30.9439 94.5395 31.1873 94.1523 31.3573C93.7651 31.5274 93.3192 31.6124 92.8146 31.6124C92.2103 31.6124 91.6852 31.4951 91.2394 31.2606C90.7993 31.026 90.462 30.6889 90.2273 30.2491C89.9926 29.8093 89.8753 29.2845 89.8753 28.6747V28.3581Z" fill="#333333"/>
<path d="M86.6589 25.6649L84.8284 31.4699H83.5524L85.5325 25.489H87.6798L89.6862 31.4699H88.3486L86.5181 25.6649H86.6589ZM84.9253 29.9131V28.9192H88.2694V29.9131H86.6061H84.9253Z" fill="#333333"/>
<path d="M80.0571 31.6124C79.4997 31.6124 79.0157 31.4951 78.605 31.2606C78.2002 31.026 77.8863 30.6947 77.6634 30.2667C77.4463 29.8328 77.3377 29.3168 77.3377 28.7187V28.402C77.3377 27.7395 77.4668 27.1824 77.725 26.7309C77.9831 26.2794 78.341 25.9364 78.7986 25.7018C79.2562 25.4673 79.7813 25.35 80.3739 25.35C80.8784 25.35 81.3155 25.4292 81.6851 25.5875C82.0547 25.7458 82.3481 25.9686 82.5652 26.2559C82.7881 26.5433 82.9289 26.8834 82.9876 27.2762H81.6939C81.6411 26.9889 81.4856 26.7661 81.2275 26.6078C80.9752 26.4436 80.6643 26.3615 80.2947 26.3615C79.7842 26.3615 79.3794 26.5315 79.0802 26.8716C78.7869 27.2059 78.6402 27.6896 78.6402 28.3229V28.6395C78.6402 29.2669 78.781 29.7507 79.0626 30.0908C79.3501 30.4309 79.7549 30.6009 80.2771 30.6009C80.6115 30.6009 80.8872 30.5394 81.1043 30.4162C81.3272 30.2872 81.4944 30.1142 81.6059 29.8973C81.7233 29.6803 81.7819 29.4341 81.7819 29.1585V28.6483L82.5035 29.1057H80.1891V28.147H83.0228V31.4717H81.9579V29.0793H82.2659C82.2659 29.6012 82.1897 30.0527 82.0371 30.4338C81.8905 30.8091 81.6528 31.0993 81.3243 31.3046C81.0016 31.5098 80.5792 31.6124 80.0571 31.6124Z" fill="#333333"/>
<path d="M72.3658 31.4699V25.489H76.634V26.5269H73.6154V27.8726H76.4139V28.9016H73.6154V30.4321H76.634V31.4699H72.3658Z" fill="#333333"/>
<path d="M67.6915 31.4719V25.491H68.9411V30.4253H71.7484V31.4719H67.6915Z" fill="#333333"/>
<path d="M63.4601 31.4699L61.6208 28.9192H63.0376L64.9737 31.4699H63.4601ZM59.8871 31.4699V25.489H62.6944C63.3633 25.489 63.8883 25.6532 64.2697 25.9815C64.651 26.3099 64.8417 26.7497 64.8417 27.3009V27.3888C64.8417 27.7582 64.7537 28.0807 64.5777 28.3563C64.4017 28.626 64.1494 28.8342 63.8209 28.9808C63.4982 29.1274 63.1139 29.2007 62.668 29.2007H61.1368V31.4699H59.8871ZM61.1368 28.2596H62.5976C62.9027 28.2596 63.1403 28.1892 63.3105 28.0485C63.4806 27.9077 63.5657 27.6996 63.5657 27.424V27.336C63.5657 27.0604 63.4747 26.8494 63.2929 26.7028C63.111 26.5503 62.844 26.4741 62.492 26.4741H61.1368V28.2596Z" fill="#333333"/>
<path d="M56.288 25.6649L54.4576 31.4699H53.1815L55.1616 25.489H57.3089L59.3154 31.4699H57.9777L56.1472 25.6649H56.288ZM54.5544 29.9131V28.9192H57.8985V29.9131H56.2352H54.5544Z" fill="#333333"/>
<path d="M48.4498 31.4719V25.491H52.7179V26.5289H49.6994V27.8746H52.4979V28.9037H49.6994V30.4341H52.7179V31.4719H48.4498Z" fill="#333333"/>
<path d="M44.4497 31.4719V28.4727L44.7665 29.5545L42.1968 25.491H43.6401L45.4178 28.5342H44.7577L46.5354 25.491H47.9347L45.3914 29.5545L45.6994 28.4727V31.4719H44.4497Z" fill="#333333"/>
<path d="M83.3112 9.35909C83.3112 9.48928 83.2056 9.59481 83.0754 9.59481H78.7976C78.6674 9.59481 78.5619 9.70035 78.5619 9.83053V14.234C78.5619 14.3642 78.4563 14.4697 78.3261 14.4697H75.4806C75.3504 14.4697 75.2449 14.3642 75.2449 14.234V9.83053C75.2449 9.70035 75.1394 9.59481 75.0092 9.59481H70.7313C70.6011 9.59481 70.4956 9.48928 70.4956 9.35909V6.76485C70.4956 6.63467 70.6011 6.52913 70.7313 6.52913H75.0092C75.1394 6.52913 75.2449 6.4236 75.2449 6.29341V1.88992C75.2449 1.75973 75.3504 1.6542 75.4806 1.6542H78.3261C78.4563 1.6542 78.5619 1.75973 78.5619 1.88992V6.29341C78.5619 6.4236 78.6674 6.52913 78.7976 6.52913H83.0754C83.2056 6.52913 83.3112 6.63467 83.3112 6.76485V9.35909Z" fill="url(#paint3_linear_1166_37516)"/>
<defs>
<linearGradient id="paint0_linear_1166_37516" x1="16.0005" y1="1.91344" x2="16.0005" y2="48.6889" gradientUnits="userSpaceOnUse">
<stop stop-color="#E31E26" stop-opacity="0.2"/>
<stop offset="1" stop-color="#E31E26"/>
</linearGradient>
<linearGradient id="paint1_linear_1166_37516" x1="48.2416" y1="0" x2="48.2416" y2="23.3057" gradientUnits="userSpaceOnUse">
<stop stop-color="#E31E26" stop-opacity="0.2"/>
<stop offset="1" stop-color="#E31E26"/>
</linearGradient>
<linearGradient id="paint2_linear_1166_37516" x1="50.458" y1="32.446" x2="50.458" y2="48.6529" gradientUnits="userSpaceOnUse">
<stop stop-color="#E31E26" stop-opacity="0.2"/>
<stop offset="1" stop-color="#E31E26"/>
</linearGradient>
<linearGradient id="paint3_linear_1166_37516" x1="76.9034" y1="1.6542" x2="76.9034" y2="14.4697" gradientUnits="userSpaceOnUse">
<stop stop-color="#E31E26" stop-opacity="0.2"/>
<stop offset="1" stop-color="#E31E26"/>
</linearGradient>
</defs>
</svg>
