<svg width="184" height="66" viewBox="0 0 184 66" fill="none" xmlns="http://www.w3.org/2000/svg">
<path d="M124.558 58.4208C123.593 58.4208 122.8 58.1932 122.18 57.738C121.56 57.275 121.227 56.6157 121.18 55.7603H123.64C123.664 56.0507 123.75 56.2626 123.899 56.396C124.048 56.5294 124.24 56.5961 124.476 56.5961C124.688 56.5961 124.86 56.5451 124.994 56.4431C125.135 56.3332 125.206 56.1841 125.206 55.9957C125.206 55.7524 125.092 55.5641 124.864 55.4307C124.637 55.2972 124.268 55.1481 123.758 54.9833C123.216 54.8028 122.777 54.6302 122.439 54.4653C122.11 54.2927 121.819 54.0455 121.568 53.7237C121.325 53.3941 121.203 52.9664 121.203 52.4405C121.203 51.9069 121.337 51.4517 121.603 51.075C121.87 50.6904 122.239 50.4 122.71 50.2038C123.181 50.0076 123.715 49.9095 124.311 49.9095C125.276 49.9095 126.045 50.1371 126.618 50.5923C127.199 51.0397 127.509 51.6714 127.548 52.4876H125.041C125.033 52.2365 124.955 52.0481 124.805 51.9226C124.664 51.797 124.48 51.7342 124.252 51.7342C124.08 51.7342 123.938 51.7852 123.828 51.8872C123.719 51.9893 123.664 52.1345 123.664 52.3228C123.664 52.4798 123.722 52.6171 123.84 52.7348C123.966 52.8447 124.119 52.9428 124.299 53.0291C124.48 53.1076 124.747 53.2097 125.1 53.3352C125.626 53.5157 126.057 53.6962 126.395 53.8767C126.74 54.0494 127.034 54.2966 127.278 54.6184C127.529 54.9323 127.654 55.3326 127.654 55.8191C127.654 56.3136 127.529 56.757 127.278 57.1494C127.034 57.5418 126.677 57.8518 126.206 58.0794C125.743 58.307 125.194 58.4208 124.558 58.4208Z" fill="black"/>
<path d="M131.034 50.039V58.3384H128.727V50.039H131.034Z" fill="black"/>
<path d="M140.035 58.3384H137.728L134.656 53.7002V58.3384H132.348V50.039H134.656L137.728 54.7361V50.039H140.035V58.3384Z" fill="black"/>
<path d="M141.067 54.171C141.067 53.3548 141.236 52.6289 141.573 51.9932C141.919 51.3497 142.405 50.8513 143.033 50.4981C143.661 50.1371 144.383 49.9566 145.199 49.9566C146.235 49.9566 147.106 50.2352 147.812 50.7924C148.519 51.3418 148.974 52.0913 149.178 53.0409H146.694C146.545 52.727 146.337 52.4876 146.07 52.3228C145.811 52.158 145.509 52.0756 145.164 52.0756C144.63 52.0756 144.202 52.2679 143.881 52.6524C143.567 53.0291 143.41 53.5353 143.41 54.171C143.41 54.8146 143.567 55.3286 143.881 55.7132C144.202 56.0899 144.63 56.2783 145.164 56.2783C145.509 56.2783 145.811 56.1959 146.07 56.031C146.337 55.8662 146.545 55.6269 146.694 55.3129H149.178C148.974 56.2626 148.519 57.016 147.812 57.5732C147.106 58.1226 146.235 58.3972 145.199 58.3972C144.383 58.3972 143.661 58.2207 143.033 57.8675C142.405 57.5065 141.919 57.0081 141.573 56.3724C141.236 55.7289 141.067 54.9951 141.067 54.171Z" fill="black"/>
<path d="M152.578 51.8872V53.241H155.227V54.9951H152.578V56.4902H155.58V58.3384H150.271V50.039H155.58V51.8872H152.578Z" fill="black"/>
<path d="M158.526 51.899V49.7329H162.152V58.3384H159.738V51.899H158.526Z" fill="black"/>
<path d="M165.715 55.7367C165.809 56.2704 166.1 56.5372 166.586 56.5372C166.94 56.5372 167.179 56.3724 167.304 56.0428C167.438 55.7053 167.505 55.1678 167.505 54.43C167.348 54.6576 167.128 54.8381 166.845 54.9716C166.563 55.105 166.245 55.1717 165.892 55.1717C165.138 55.1717 164.526 54.9362 164.055 54.4653C163.585 53.9945 163.349 53.3156 163.349 52.4288C163.349 51.848 163.471 51.3418 163.714 50.9102C163.957 50.4707 164.303 50.1332 164.75 49.8978C165.205 49.6623 165.735 49.5446 166.339 49.5446C167.54 49.5446 168.376 49.9095 168.847 50.6394C169.325 51.3614 169.565 52.4131 169.565 53.7943C169.565 55.3404 169.333 56.4941 168.87 57.2553C168.415 58.0166 167.63 58.3972 166.516 58.3972C165.911 58.3972 165.39 58.2756 164.95 58.0323C164.518 57.7812 164.185 57.4555 163.949 57.0552C163.722 56.6471 163.592 56.2076 163.561 55.7367H165.715ZM166.445 53.3823C166.72 53.3823 166.936 53.3038 167.093 53.1469C167.25 52.9821 167.328 52.7623 167.328 52.4876C167.328 52.1737 167.246 51.9383 167.081 51.7813C166.924 51.6243 166.704 51.5459 166.422 51.5459C166.139 51.5459 165.915 51.6283 165.751 51.7931C165.594 51.95 165.515 52.1776 165.515 52.4759C165.515 52.7505 165.594 52.9703 165.751 53.1351C165.915 53.2999 166.147 53.3823 166.445 53.3823Z" fill="black"/>
<path d="M175.974 51.4517L173.149 58.3384H170.782L173.631 51.7224H170.276V49.7447H175.974V51.4517Z" fill="black"/>
<path d="M176.768 56.9257V55.0186L180.382 49.8624H182.913V54.9245H183.819V56.9257H182.913V58.3384H180.582V56.9257H176.768ZM180.758 52.4641L179.134 54.9245H180.758V52.4641Z" fill="black"/>
<path d="M86.5715 38.9954H73.8239L72.0509 44.9884H60.5893L74.2484 8.65583H86.4966L100.143 44.9884H88.3819L86.559 38.9954H86.5715ZM84.2367 31.1296L80.2289 18.0698L76.2585 31.1296H84.2367Z" fill="black"/>
<path d="M103.739 8.65583H124.752C128.261 8.65583 130.945 9.51733 132.818 11.2528C134.691 12.9883 135.627 15.1358 135.627 17.6953C135.627 19.8428 134.953 21.6906 133.617 23.2263C132.73 24.2501 131.42 25.0617 129.697 25.661C132.306 26.2852 134.229 27.3715 135.452 28.8947C136.688 30.4179 137.3 32.3406 137.3 34.6504C137.3 36.5357 136.863 38.2213 135.989 39.732C135.115 41.2303 133.917 42.4289 132.393 43.3029C131.457 43.8522 130.034 44.2392 128.136 44.4889C125.601 44.8136 123.928 44.9884 123.104 44.9884H103.727V8.65583H103.739ZM115.064 22.9017H119.945C121.693 22.9017 122.917 22.602 123.604 22.0027C124.29 21.4034 124.627 20.5295 124.627 19.3933C124.627 18.332 124.29 17.508 123.604 16.9087C122.917 16.3094 121.718 16.0222 120.02 16.0222H115.064V22.9142V22.9017ZM115.064 37.185H120.782C122.717 37.185 124.078 36.8479 124.865 36.1612C125.664 35.4745 126.051 34.5506 126.051 33.4019C126.051 32.3282 125.651 31.4667 124.877 30.8174C124.091 30.1682 122.717 29.8436 120.757 29.8436H115.064V37.1975V37.185Z" fill="black"/>
<path d="M143.069 8.65583H157.827L163.52 30.7675L169.176 8.65583H183.934V44.9884H174.732V17.2833L167.653 44.9884H159.325L152.258 17.2833V44.9884H143.069V8.65583Z" fill="black"/>
<path d="M29.2895 16.1284C29.2895 18.1454 27.6549 19.7832 25.6347 19.7832C23.6145 19.7832 21.9799 18.1486 21.9799 16.1284C21.9799 14.1083 23.6145 12.4736 25.6347 12.4736C27.6549 12.4736 29.2895 14.1083 29.2895 16.1284Z" fill="#E31E26"/>
<path d="M19.8674 58.0594C19.791 58.053 19.7145 58.0498 19.638 58.0498C18.5483 58.0498 17.5955 58.7477 17.2705 59.7864C16.697 61.2171 16.2509 62.6797 15.9482 64.1327C15.929 64.2315 15.9513 64.3302 16.0119 64.4035C16.0756 64.48 16.1712 64.5246 16.27 64.5246C16.3624 64.5246 16.4484 64.4864 16.5121 64.4163C17.6338 63.1672 18.236 63.1481 19.0039 63.1226C19.3703 63.1098 19.7463 63.0971 20.1956 62.9537L20.3199 62.9155C20.3709 62.8995 20.425 62.8836 20.4665 62.8677H20.4728L20.4792 62.8613C20.5589 62.8231 20.9699 62.6255 21.0623 62.5618C21.7888 62.0583 22.1808 61.2235 22.1138 60.3345C22.0246 59.1428 21.056 58.1614 19.8674 58.0562" fill="black"/>
<path d="M23.9583 59.3079C24.0093 59.0817 23.9584 58.8491 23.8118 58.6706C23.6684 58.4922 23.4549 58.3902 23.2255 58.3902C23.1681 58.3902 23.1108 58.3966 23.0534 58.4093C22.7762 58.4731 22.5563 58.6929 22.4926 58.9702C22.4416 59.1964 22.4926 59.429 22.6392 59.6074C22.7826 59.7859 22.9961 59.8878 23.2223 59.8878C23.2796 59.8878 23.3338 59.8815 23.3912 59.8687C23.6684 59.8082 23.8883 59.5883 23.952 59.3079" fill="black"/>
<path d="M27.5526 62.2209C27.5398 62.1986 27.4634 62.0871 27.355 61.9055C26.9376 61.2108 25.9689 59.4328 25.9626 57.983V57.8938C25.9626 57.8046 25.9307 57.7217 25.8702 57.6612C25.8096 57.5975 25.7268 57.5624 25.6344 57.5624C25.542 57.5624 25.4623 57.5975 25.3986 57.6612C25.338 57.7249 25.303 57.8078 25.3062 57.897C25.3062 57.9193 25.3062 57.9798 25.3062 57.9798C25.303 59.4392 24.328 61.2172 23.9105 61.915C23.8118 62.0807 23.7385 62.1891 23.7193 62.2241L23.7066 62.2432C23.6684 62.3101 23.5728 62.4758 23.5218 62.5746C23.3561 62.8996 23.2733 63.2501 23.2701 63.6134C23.2605 64.786 24.1208 65.7993 25.2711 65.9713C25.3922 65.9904 25.5133 66 25.6344 66C26.2653 66 26.858 65.7546 27.3072 65.3054C27.7565 64.8561 28.0019 64.2634 28.0019 63.6325C28.0019 63.3011 27.935 62.9793 27.8011 62.6766C27.7278 62.5109 27.5621 62.2273 27.5558 62.2177" fill="black"/>
<path d="M28.9386 53.8068C28.9386 53.7462 28.9386 53.6857 28.9323 53.622C28.9323 53.5996 28.9291 53.5773 28.9259 53.555C28.9259 53.5168 28.9195 53.4786 28.9163 53.4403C28.9163 53.4117 28.91 53.3862 28.9068 53.3575C28.9036 53.3256 28.8972 53.2938 28.894 53.2619C28.8877 53.2332 28.8845 53.2014 28.8781 53.1727C28.8717 53.144 28.8653 53.1153 28.859 53.0866C28.8526 53.0548 28.8462 53.0261 28.8367 52.9942C28.8303 52.9656 28.8207 52.9401 28.8144 52.9114C28.8048 52.8795 28.7952 52.8508 28.7857 52.819C28.7761 52.7935 28.7698 52.7648 28.7602 52.7393C28.7506 52.7075 28.7411 52.6788 28.7283 52.6501C28.7188 52.6214 28.706 52.5959 28.6965 52.5673C28.6837 52.5386 28.6742 52.5099 28.6614 52.4844C28.6614 52.4812 28.6614 52.478 28.6582 52.4749C28.6423 52.4398 28.6232 52.4016 28.6041 52.3601C28.5977 52.3506 28.5945 52.3378 28.5881 52.3283C28.569 52.2932 28.5467 52.2486 28.5212 52.204C28.4193 52.016 28.3173 51.8344 28.3109 51.828C28.3109 51.828 28.193 51.6528 28.0178 51.3596C27.3837 50.3017 25.9147 47.6028 25.9657 45.417C25.9657 45.3278 25.9339 45.2449 25.8701 45.1844C25.8096 45.1238 25.7267 45.0888 25.6375 45.0888C25.6375 45.0888 25.6375 45.0888 25.6343 45.0888C25.6343 45.0888 25.6343 45.0888 25.6312 45.0888C25.5419 45.0888 25.4623 45.1238 25.3985 45.1844C25.338 45.2481 25.303 45.3309 25.303 45.417C25.3539 47.6028 23.885 50.3017 23.2477 51.3596C23.0725 51.6528 22.9578 51.828 22.9546 51.828C22.9514 51.8344 22.8462 52.016 22.7443 52.204C22.7188 52.2486 22.6965 52.2932 22.6774 52.3283C22.671 52.3378 22.6678 52.3506 22.6614 52.3601C22.6423 52.4016 22.6232 52.4398 22.6073 52.4749C22.6073 52.478 22.6073 52.4812 22.6041 52.4844C22.5913 52.5131 22.5818 52.5418 22.569 52.5673C22.5595 52.5959 22.5467 52.6214 22.5372 52.6501C22.5244 52.6788 22.5149 52.7106 22.5053 52.7393C22.4957 52.7648 22.4862 52.7935 22.4798 52.819C22.4702 52.8508 22.4607 52.8795 22.4511 52.9114C22.4448 52.9369 22.4352 52.9656 22.4288 52.9942C22.4224 53.0229 22.4129 53.0548 22.4065 53.0866C22.4001 53.1153 22.3938 53.144 22.3874 53.1727C22.381 53.2014 22.3747 53.2332 22.3715 53.2619C22.3651 53.2938 22.3619 53.3256 22.3587 53.3575C22.3555 53.3862 22.3523 53.4117 22.3492 53.4403C22.346 53.4786 22.3428 53.5168 22.3396 53.555C22.3396 53.5773 22.3364 53.5996 22.3332 53.622C22.3332 53.6825 22.3269 53.743 22.3269 53.8068C22.3269 53.8609 22.3269 53.9151 22.33 53.9693C22.33 53.9756 22.33 53.982 22.33 53.9852C22.4129 55.5657 23.5696 56.8498 25.1468 57.076C25.1564 57.076 25.1691 57.076 25.1787 57.0792C25.2392 57.0888 25.2998 57.0951 25.3603 57.0983C25.3794 57.0983 25.3954 57.0983 25.4145 57.1015C25.4846 57.1047 25.5579 57.1111 25.6312 57.1111C25.7044 57.1111 25.7745 57.1079 25.8478 57.1015C25.8669 57.1015 25.8829 57.1015 25.902 57.0983C25.9625 57.0951 26.0231 57.0888 26.0836 57.0792C26.0932 57.0792 26.1059 57.0792 26.1155 57.076C27.6896 56.8498 28.8494 55.5657 28.9323 53.9852C28.9323 53.9788 28.9323 53.9725 28.9323 53.9693C28.9323 53.9151 28.9355 53.8609 28.9355 53.8068" fill="black"/>
<path d="M35.3213 64.1347C35.0186 62.6817 34.5757 61.2159 33.999 59.7884C33.6708 58.7497 32.7212 58.0518 31.6315 58.0518C31.555 58.0518 31.4785 58.0518 31.4021 58.0614C30.2104 58.1666 29.2449 59.1448 29.1557 60.3397C29.0887 61.2319 29.4807 62.0635 30.2072 62.567C30.2964 62.6307 30.7074 62.8283 30.7903 62.8665H30.7967L30.803 62.8729C30.8476 62.8888 30.8986 62.9047 30.9496 62.9207L31.0739 62.9589C31.5231 63.0991 31.8991 63.115 32.2656 63.1278C33.0303 63.1533 33.6357 63.1756 34.7573 64.4215C34.8211 64.4916 34.9071 64.5298 34.9995 64.5298C35.0983 64.5298 35.1939 64.4852 35.2576 64.4055C35.3182 64.3291 35.3436 64.2303 35.3213 64.1347Z" fill="black"/>
<path d="M28.2128 58.4073C28.1554 58.3946 28.098 58.3882 28.0407 58.3882C27.8113 58.3882 27.5978 58.4902 27.4576 58.6686C27.3142 58.8471 27.26 59.0797 27.311 59.3059C27.3747 59.5831 27.5946 59.803 27.8718 59.8667C27.9292 59.8794 27.9833 59.8858 28.0407 59.8858C28.2701 59.8858 28.4836 59.7839 28.627 59.6054C28.7704 59.427 28.8214 59.1944 28.7736 58.9681C28.713 58.6909 28.4932 58.4711 28.2128 58.4073Z" fill="black"/>
<path d="M11.5316 49.3123C10.7254 49.2008 9.91289 49.1434 9.10991 49.1434C7.43705 49.1434 5.77057 49.3824 4.16462 49.8508C4.14869 49.854 4.13276 49.8604 4.1232 49.8604C4.1232 49.8604 4.04035 49.8827 4.02124 49.889L3.85554 49.94L3.69622 50.0006L3.70578 50.0229C3.16728 50.3128 2.82634 50.8736 2.82634 51.495C2.82634 52.4222 3.57833 53.1742 4.50557 53.1742C4.65214 53.1742 4.79872 53.1551 4.94848 53.1137L5.1301 53.0563H5.13966C7.21401 52.0781 9.43174 51.5874 11.7323 51.5874C13.6951 51.5874 15.6102 51.9506 17.4264 52.6644L17.8725 52.8396V52.5178C19.7493 52.4987 21.2692 50.966 21.2692 49.0861C21.2692 47.7892 20.5459 46.6198 19.3924 46.0367C19.2968 45.9825 19.1917 45.9347 19.0961 45.8997C19.0387 45.871 18.5671 45.785 18.4684 45.785C17.4328 45.785 16.5884 46.6294 16.5884 47.6649C16.5884 48.7005 17.4328 49.5449 18.4684 49.5449C18.8252 49.5449 19.1694 49.443 19.4689 49.255C19.3956 50.2077 18.6978 51.0075 17.7514 51.205C17.3117 51.0266 16.8656 50.829 16.4163 50.6155C16.2156 49.8954 16.0945 49.1275 16.3112 48.4137C16.343 48.3118 16.4354 47.9422 16.4386 47.9262L16.445 47.9039V47.8816C16.4418 47.7669 16.41 47.6554 16.3526 47.5566C16.2283 47.3367 15.9925 47.1997 15.7376 47.1997C15.6134 47.1997 15.4955 47.2316 15.3871 47.2921C15.2947 47.3463 15.2151 47.4196 15.1545 47.5056L15.1418 47.5247L15.1354 47.547C15.1163 47.6076 15.0143 47.9167 14.9984 48.025C14.8996 48.6878 15.0749 49.3792 15.2629 50.0229C14.8964 49.8221 14.5364 49.6118 14.189 49.392C14.001 48.0569 14.2719 46.6835 14.957 45.5269C15.0207 45.4217 15.2119 45.0616 15.2182 45.0457L15.2278 45.0298V45.0107C15.2756 44.8482 15.2724 44.6793 15.2246 44.5168C15.1067 44.1408 14.7658 43.8891 14.3707 43.8891C14.2814 43.8891 14.1922 43.9018 14.1094 43.9273C13.9596 43.9751 13.8226 44.0611 13.7174 44.1758L13.7047 44.1886L13.6951 44.2045C13.6633 44.2587 13.504 44.5359 13.4625 44.6315C12.9304 45.9156 12.8189 47.3431 13.1311 48.6941C6.93042 44.3479 3.24057 37.2805 3.24057 29.6968C3.24057 21.0936 7.966 13.2391 15.5751 9.19555C16.4386 8.87372 17.0186 8.04844 17.0186 7.13076C17.0186 5.91355 16.0276 4.92258 14.8104 4.92258C14.4949 4.92258 14.1827 4.99269 13.8831 5.13289C13.8226 5.15201 13.7684 5.17431 13.7143 5.20299C5.25437 9.66076 0 18.3596 0 27.9093C0 32.2714 1.13117 36.5986 3.26925 40.4191C5.27349 44.0006 8.11895 47.0627 11.5316 49.3187" fill="black"/>
<path d="M17.366 53.0348C17.3755 52.8563 17.2513 52.7034 17.076 52.6715C16.0181 52.4963 14.9571 52.4102 13.9151 52.4102C9.42228 52.4102 5.04417 53.9875 1.58692 56.8489C1.37025 57.0273 0.857238 57.5244 0.838119 57.5467L0.831748 57.5531L0.825373 57.5626C0.404769 58.0979 0.283687 58.8053 0.503549 59.4522C0.745715 60.1723 1.38937 60.7012 2.14136 60.8032C2.23376 60.8159 2.32298 60.8223 2.41539 60.8223C2.89016 60.8223 3.349 60.6566 3.70907 60.3539L3.71862 60.3475C3.71862 60.3475 4.32085 59.6848 4.55665 59.4235C7.80677 55.8388 12.2422 53.688 17.0473 53.363C17.2226 53.3502 17.3596 53.2132 17.3692 53.0379" fill="black"/>
<path d="M15.2886 54.4223C15.2663 54.4223 15.244 54.4223 15.2217 54.4287C14.4633 54.5785 13.7209 54.7888 13.0167 55.0533C9.87169 56.2259 7.23335 58.4786 5.58917 61.4006C5.50633 61.5471 5.30877 61.99 5.29921 62.0092V62.0187L5.29284 62.0283C5.12077 62.6241 5.31196 63.2519 5.79629 63.6693C6.06395 63.8987 6.41764 64.0262 6.79682 64.0262C6.98163 64.0262 7.16644 63.9943 7.34169 63.9274C7.67626 63.8031 7.95029 63.5769 8.13192 63.2742L8.13829 63.2646V63.255C8.13829 63.255 8.31036 62.8791 8.35178 62.7675C9.58492 59.374 12.1659 56.5732 15.4351 55.0851C15.5945 55.0118 15.6741 54.8334 15.6231 54.6677C15.5785 54.5211 15.4447 54.4223 15.2918 54.4223" fill="black"/>
<path d="M14.9443 15.3861H14.9539L14.9634 15.3765C15.3012 15.1758 15.5561 14.8731 15.6931 14.5035C15.8971 13.9586 15.8078 13.3532 15.4573 12.8784C15.3617 12.7478 15.247 12.6331 15.1164 12.5375C14.8137 12.3176 14.4632 12.1997 14.0999 12.1997C13.9311 12.1997 13.7654 12.2252 13.606 12.273H13.5933L13.5806 12.2826C13.5487 12.2985 12.8094 12.6585 12.5195 12.8338C9.4701 14.6724 7.10579 17.5274 5.85991 20.8667C5.56676 21.6538 5.33096 22.4854 5.16208 23.3394C5.12703 23.5146 5.229 23.6835 5.40106 23.7377C5.43293 23.7472 5.46798 23.7536 5.50303 23.7536C5.63686 23.7536 5.76113 23.6739 5.81848 23.5497C7.46904 19.914 10.5726 17.0335 14.3325 15.641C14.4823 15.5837 14.9252 15.3957 14.9443 15.3861Z" fill="black"/>
<path d="M11.6755 22.7079C11.8826 22.5995 12.4339 22.2968 12.4562 22.2841L12.4657 22.2777L12.4753 22.2713C12.778 22.0419 12.9851 21.7265 13.0775 21.3568C13.1858 20.9299 13.1189 20.4838 12.8927 20.1046C12.6665 19.7254 12.3064 19.4577 11.8762 19.3494C11.7456 19.3175 11.6118 19.3016 11.4779 19.3016C11.2581 19.3016 11.0414 19.3462 10.8375 19.4322H10.8311L10.8247 19.4386C10.7929 19.4577 10.4965 19.6202 10.4169 19.6776C7.40253 21.7774 5.24852 24.8969 4.35315 28.4625C4.15559 29.2464 4.02176 30.0621 3.95166 30.8905C3.93573 31.069 4.05681 31.2251 4.23206 31.2602C4.25437 31.2633 4.27667 31.2665 4.29579 31.2665C4.44555 31.2665 4.5762 31.1709 4.62399 31.0276C5.78384 27.4811 8.35208 24.4476 11.6755 22.7079Z" fill="black"/>
<path d="M5.01219 35.7491C5.01219 35.7491 5.04405 35.7523 5.0568 35.7523C5.21293 35.7523 5.34995 35.6472 5.39137 35.4942C6.15929 32.6201 8.08069 30.1124 10.6649 28.6148C10.7796 28.5479 11.1333 28.3153 11.1492 28.3057L11.1588 28.2993L11.1683 28.2929C11.3945 28.0922 11.5411 27.8277 11.5985 27.5282C11.7387 26.7858 11.2512 26.0657 10.5055 25.9223C10.4227 25.9063 10.3367 25.9 10.2506 25.9C10.0531 25.9 9.8587 25.9414 9.67708 26.0274H9.66752L9.65796 26.037C9.62609 26.0593 9.32976 26.2441 9.24691 26.311C6.99094 28.1081 5.45191 30.6604 4.91341 33.4932C4.79551 34.1113 4.72541 34.7518 4.70629 35.3986C4.69992 35.5771 4.83056 35.73 5.009 35.7523" fill="black"/>
<path d="M6.80299 40.3916C6.80299 40.3916 6.81574 40.3916 6.82529 40.3916C6.99736 40.382 7.13756 40.2418 7.14712 40.0697C7.30963 37.8042 8.31972 35.6948 9.98939 34.1367C10.1391 33.9965 10.5661 33.5918 10.5661 33.5918L10.5757 33.5822L10.5852 33.5695C10.7286 33.3719 10.8019 33.1361 10.8019 32.8908C10.8019 32.2503 10.2762 31.7309 9.63251 31.7309C9.40309 31.7309 9.18004 31.801 8.98886 31.9285L8.97611 31.938L8.96656 31.9476C8.93469 31.9795 8.63836 32.2662 8.55232 32.3746C7.11207 34.1207 6.32503 36.3321 6.33459 38.5976C6.33459 39.0915 6.3792 39.5981 6.45886 40.1016C6.48435 40.2705 6.63092 40.3916 6.7998 40.3916" fill="black"/>
<path d="M11.4326 38.1973L11.439 38.1845L11.4453 38.1718C11.5314 37.9838 11.5569 37.7735 11.5186 37.5696C11.4294 37.0789 11.0056 36.722 10.5085 36.722C10.448 36.722 10.3843 36.7284 10.3269 36.7379C10.1357 36.773 9.96049 36.859 9.8171 36.9896L9.80754 36.9992L9.79798 37.0088C9.74063 37.0789 9.6068 37.2477 9.57812 37.3019C8.56803 38.9971 8.20478 41.0045 8.55529 42.9482C8.62857 43.3497 8.73372 43.7576 8.87074 44.1559C8.91853 44.2961 9.04918 44.3885 9.19894 44.3885C9.22443 44.3885 9.25311 44.3853 9.2786 44.3789C9.44429 44.3407 9.559 44.1782 9.54307 44.0061C9.35189 42.0592 9.95411 40.0645 11.1936 38.5414C11.2446 38.4777 11.4167 38.226 11.4358 38.1973" fill="black"/>
<path d="M13.4247 41.8944L13.4342 41.8785L13.4406 41.8594C13.5043 41.7033 13.5203 41.5344 13.4916 41.3655C13.4151 40.9385 13.0455 40.6294 12.6121 40.6294C12.558 40.6294 12.507 40.6326 12.4528 40.6422C12.2967 40.6709 12.1501 40.741 12.029 40.8429L12.0131 40.8557L12.0003 40.8716C11.9717 40.913 11.7136 41.2731 11.6403 41.4101C10.9393 42.7293 10.7003 44.2651 10.9648 45.7372C11.0221 46.0559 11.105 46.3777 11.2101 46.6932C11.2579 46.8334 11.3886 46.929 11.5383 46.929C11.5638 46.929 11.5925 46.9258 11.618 46.9194C11.7869 46.878 11.8984 46.7218 11.8824 46.5498C11.7454 45.0745 12.1597 43.6055 13.0455 42.4106C13.1379 42.2864 13.4183 41.8881 13.4183 41.8881" fill="black"/>
<path d="M39.7408 49.3123C40.5469 49.2008 41.3595 49.1434 42.1624 49.1434C43.8353 49.1434 45.5018 49.3824 47.1077 49.8508C47.1237 49.854 47.1396 49.8604 47.1491 49.8604C47.1491 49.8604 47.232 49.8827 47.2511 49.889L47.4168 49.94L47.5761 50.0006L47.5697 50.0229C48.1082 50.3128 48.4492 50.8736 48.4492 51.495C48.4492 52.4222 47.694 53.1742 46.77 53.1742C46.6234 53.1742 46.4736 53.1551 46.327 53.1137L46.1454 53.0563H46.1359C44.0615 52.0781 41.8438 51.5874 39.5432 51.5874C37.5804 51.5874 35.6654 51.9506 33.8491 52.6644L33.403 52.8396V52.5178C31.5262 52.4987 30.0063 50.966 30.0063 49.0861C30.0063 47.7892 30.7296 46.6198 31.8863 46.0367C31.9819 45.9825 32.087 45.9347 32.1826 45.8997C32.24 45.871 32.7116 45.785 32.8135 45.785C33.8491 45.785 34.6935 46.6294 34.6935 47.6649C34.6935 48.7005 33.8491 49.5449 32.8135 49.5449C32.4567 49.5449 32.1125 49.443 31.813 49.255C31.8863 50.2077 32.5841 51.0075 33.5305 51.205C33.9702 51.0266 34.4163 50.829 34.8656 50.6155C35.0663 49.8954 35.1874 49.1275 34.9707 48.4137C34.9389 48.3118 34.8465 47.9422 34.8433 47.9262L34.8369 47.9039V47.8816C34.8401 47.7669 34.8719 47.6554 34.9293 47.5566C35.0536 47.3367 35.2894 47.1997 35.5443 47.1997C35.6654 47.1997 35.7864 47.2316 35.8948 47.2921C35.9872 47.3463 36.0668 47.4196 36.1274 47.5056L36.1401 47.5247L36.1465 47.547C36.1656 47.6076 36.2676 47.9167 36.2835 48.025C36.3823 48.6878 36.207 49.3792 36.0191 50.0229C36.3855 49.8221 36.7455 49.6118 37.0929 49.392C37.2809 48.0569 37.01 46.6835 36.3249 45.5269C36.2612 45.4217 36.07 45.0616 36.0637 45.0457L36.0541 45.0298V45.0107C36.0063 44.8482 36.0095 44.6793 36.0573 44.5168C36.1752 44.1408 36.5161 43.8891 36.9112 43.8891C37.0005 43.8891 37.0897 43.9018 37.1725 43.9273C37.3223 43.9751 37.4593 44.0611 37.5645 44.1758L37.5772 44.1886L37.5868 44.2045C37.6186 44.2587 37.7779 44.5359 37.8194 44.6315C38.3515 45.9156 38.463 47.3431 38.1508 48.6941C44.3515 44.3479 48.0413 37.2805 48.0413 29.6968C48.0413 21.0936 43.3159 13.2391 35.7068 9.19555C34.8433 8.87372 34.2633 8.04844 34.2633 7.13076C34.2633 5.91355 35.2543 4.92258 36.4715 4.92258C36.787 4.92258 37.0992 4.99269 37.3988 5.13289C37.4593 5.15201 37.5135 5.17431 37.5676 5.20299C46.0275 9.66076 51.2819 18.3596 51.2819 27.9093C51.2819 32.2714 50.1507 36.5986 48.0127 40.4191C46.0084 44.0006 43.163 47.0627 39.7535 49.3187" fill="black"/>
<path d="M33.9064 53.0348C33.8968 52.8563 34.0211 52.7034 34.1963 52.6715C35.2542 52.4963 36.3153 52.4102 37.3573 52.4102C41.8501 52.4102 46.2282 53.9875 49.6854 56.8489C49.9021 57.0273 50.4151 57.5244 50.4342 57.5467L50.4406 57.5531L50.447 57.5626C50.8676 58.0979 50.9887 58.8053 50.7688 59.4522C50.5266 60.1723 49.883 60.7012 49.131 60.8032C49.0386 60.8159 48.9494 60.8223 48.857 60.8223C48.3822 60.8223 47.9234 60.6566 47.5633 60.3539L47.5537 60.3475C47.5537 60.3475 46.9515 59.6848 46.7157 59.4235C43.4656 55.8388 39.0301 53.688 34.225 53.363C34.0498 53.3502 33.9128 53.2132 33.9032 53.0379" fill="black"/>
<path d="M35.9814 54.4223C36.0037 54.4223 36.026 54.4223 36.0483 54.4287C36.8067 54.5785 37.5491 54.7888 38.2533 55.0533C41.3983 56.2259 44.0366 58.4786 45.684 61.4006C45.7668 61.5471 45.9644 61.99 45.974 62.0092V62.0187L45.9803 62.0283C46.1524 62.6241 45.9612 63.2519 45.4769 63.6693C45.2092 63.8987 44.8555 64.0262 44.4763 64.0262C44.2915 64.0262 44.1067 63.9943 43.9315 63.9274C43.5969 63.8031 43.3229 63.5769 43.1412 63.2742L43.1349 63.2646V63.255C43.1349 63.255 42.9628 62.8791 42.9246 62.7675C41.6914 59.374 39.1104 56.5732 35.8412 55.0851C35.6819 55.0118 35.6022 54.8334 35.6532 54.6677C35.6978 54.5211 35.8316 54.4223 35.9846 54.4223" fill="black"/>
<path d="M36.3283 15.3861H36.3187L36.3092 15.3765C35.9682 15.1758 35.7165 14.8731 35.5795 14.5035C35.3756 13.9586 35.4648 13.3532 35.8153 12.8784C35.9109 12.7478 36.0256 12.6331 36.1562 12.5375C36.4589 12.3176 36.8094 12.1997 37.1727 12.1997C37.3384 12.1997 37.5073 12.2252 37.6666 12.273H37.6793L37.6921 12.2826C37.7239 12.2985 38.4632 12.6585 38.7531 12.8338C41.8025 14.6724 44.1668 17.5274 45.4127 20.8667C45.7059 21.6538 45.9417 22.4854 46.1105 23.3394C46.1456 23.5146 46.0436 23.6835 45.8716 23.7377C45.8397 23.7472 45.8046 23.7536 45.7696 23.7536C45.6358 23.7536 45.5115 23.6739 45.4541 23.5497C43.8036 19.914 40.7 17.0335 36.9401 15.641C36.7903 15.5837 36.3474 15.3957 36.3283 15.3861Z" fill="black"/>
<path d="M39.5947 22.7079C39.3876 22.5995 38.8363 22.2968 38.814 22.2841L38.8045 22.2777L38.7949 22.2713C38.4922 22.0419 38.2851 21.7265 38.1927 21.3568C38.0843 20.9299 38.1513 20.4838 38.3775 20.1046C38.6037 19.7254 38.9638 19.4577 39.394 19.3494C39.5246 19.3175 39.6584 19.3016 39.7923 19.3016C40.0121 19.3016 40.2288 19.3462 40.4327 19.4322H40.4391L40.4455 19.4386C40.4773 19.4577 40.7737 19.6202 40.8533 19.6776C43.8677 21.7774 46.0217 24.8969 46.917 28.4625C47.1146 29.2464 47.2484 30.0621 47.3185 30.8905C47.3345 31.069 47.2134 31.2251 47.0381 31.2602C47.0158 31.2633 46.9935 31.2665 46.9712 31.2665C46.8214 31.2665 46.6908 31.1709 46.643 31.0276C45.4832 27.4811 42.9149 24.4476 39.5915 22.7079" fill="black"/>
<path d="M46.2604 35.7491C46.2604 35.7491 46.2285 35.7523 46.2158 35.7523C46.0596 35.7523 45.9226 35.6472 45.8812 35.4942C45.1133 32.6201 43.1919 30.1124 40.6077 28.6148C40.493 28.5479 40.1393 28.3153 40.1234 28.3057L40.1138 28.2993L40.1042 28.2929C39.878 28.0922 39.7314 27.8277 39.6741 27.5282C39.5339 26.7858 40.0214 26.0657 40.767 25.9223C40.8499 25.9063 40.9359 25.9 41.0219 25.9C41.2195 25.9 41.4139 25.9414 41.5955 26.0274H41.605L41.6146 26.037C41.6465 26.0593 41.9428 26.2441 42.0256 26.311C44.2816 28.1081 45.8206 30.6604 46.3591 33.4932C46.477 34.1113 46.5471 34.7518 46.5663 35.3986C46.5726 35.5771 46.442 35.73 46.2636 35.7523" fill="black"/>
<path d="M44.4694 40.3916C44.4694 40.3916 44.4567 40.3916 44.4471 40.3916C44.275 40.382 44.1348 40.2418 44.1253 40.0697C43.9628 37.8042 42.9527 35.6948 41.283 34.1367C41.1333 33.9965 40.7063 33.5918 40.7063 33.5918L40.6935 33.5822L40.684 33.5695C40.5406 33.3719 40.4673 33.1361 40.4673 32.8908C40.4673 32.2503 40.9931 31.7309 41.6367 31.7309C41.8661 31.7309 42.0892 31.801 42.2804 31.9285L42.2931 31.938L42.3027 31.9476C42.3345 31.9795 42.6309 32.2662 42.7169 32.3746C44.1572 34.1207 44.9442 36.3321 44.9346 38.5976C44.9346 39.0915 44.89 39.5981 44.8104 40.1016C44.7849 40.2705 44.6383 40.3916 44.4694 40.3916Z" fill="black"/>
<path d="M39.8395 38.1973L39.8331 38.1845L39.8268 38.1718C39.7407 37.9838 39.7152 37.7735 39.7535 37.5696C39.8427 37.0789 40.2665 36.722 40.7636 36.722C40.8241 36.722 40.8846 36.7284 40.9452 36.7379C41.1364 36.773 41.3116 36.859 41.455 36.9896L41.4646 36.9992L41.4741 37.0088C41.5315 37.0789 41.6653 37.2477 41.694 37.3019C42.7041 38.9971 43.0673 41.0045 42.7168 42.9482C42.6435 43.3497 42.5384 43.7576 42.4014 44.1559C42.3536 44.2961 42.2229 44.3885 42.0732 44.3885C42.0477 44.3885 42.019 44.3853 41.9935 44.3789C41.8278 44.3407 41.7131 44.1782 41.729 44.0061C41.9202 42.0592 41.318 40.0645 40.0785 38.5414C40.0275 38.4777 39.8554 38.226 39.8363 38.1973" fill="black"/>
<path d="M37.8446 41.8944L37.8319 41.8785L37.8255 41.8594C37.7618 41.7033 37.7458 41.5344 37.7745 41.3655C37.851 40.9385 38.2206 40.6294 38.654 40.6294C38.7081 40.6294 38.7591 40.6326 38.8133 40.6422C38.9694 40.6709 39.116 40.741 39.2371 40.8429L39.253 40.8557L39.2657 40.8716C39.2944 40.913 39.5525 41.2731 39.6258 41.4101C40.3268 42.7293 40.5658 44.2651 40.3013 45.7372C40.244 46.0559 40.1611 46.3777 40.056 46.6932C40.0082 46.8334 39.8775 46.929 39.7278 46.929C39.6991 46.929 39.6736 46.9258 39.6481 46.9194C39.4792 46.878 39.3677 46.7218 39.3836 46.5498C39.5207 45.0745 39.1064 43.6055 38.2206 42.4106C38.1282 42.2864 37.8478 41.8881 37.8478 41.8881" fill="black"/>
<path d="M31.4911 0V32.6351C31.4911 35.8597 28.8783 38.4726 25.6568 38.4726C22.4354 38.4726 19.8194 35.8597 19.8194 32.6351V0H18.1561V32.8868C18.1561 37.0132 21.5018 40.3589 25.6282 40.3589C29.7545 40.3589 33.1003 37.0132 33.1003 32.8868V0H31.4911Z" fill="black"/>
</svg>
