<svg width="124" height="105" viewBox="0 0 124 105" fill="none" xmlns="http://www.w3.org/2000/svg">
<path d="M77.5224 35.9487L48.3999 72.0529L35.8268 56.7827C35.2058 56.1616 34.337 55.8489 33.467 55.9256C32.5923 56.0035 31.797 56.4652 31.2957 57.1863L3.03039 97.8423C2.40032 98.7484 2.32601 99.9297 2.83749 100.908C3.34859 101.887 4.36128 102.5 5.46489 102.5H118.528H118.535C120.173 102.5 121.5 101.173 121.5 99.5347C121.5 98.8298 121.254 98.1823 120.843 97.6735L77.5224 35.9487ZM77.5224 35.9487V5.46499C77.5224 3.82713 76.1955 2.5 74.5579 2.5H43.152C41.5144 2.5 40.1875 3.82713 40.1875 5.46499V24.3172C40.1875 25.9551 41.5144 27.2822 43.152 27.2822H77.5224" stroke="url(#paint0_linear_1166_32720)" stroke-width="5"/>
<defs>
<linearGradient id="paint0_linear_1166_32720" x1="62" y1="2.5" x2="62" y2="102.5" gradientUnits="userSpaceOnUse">
<stop stop-color="#E31E26"/>
<stop offset="1" stop-color="#F4F4F4"/>
</linearGradient>
</defs>
</svg>
