<svg width="105" height="105" viewBox="0 0 105 105" fill="none" xmlns="http://www.w3.org/2000/svg">
<path d="M2.5 31.6667V23.3333C2.5 11.8458 11.8458 2.5 23.3333 2.5H31.6667M2.5 73.3333V81.6667C2.5 93.1542 11.8458 102.5 23.3333 102.5H31.6667M73.3333 2.5H81.6667C93.1542 2.5 102.5 11.8458 102.5 23.3333V31.6667M73.3333 102.5H81.6667C93.1542 102.5 102.5 93.1542 102.5 81.6667V73.3333M52.5 44.1667C47.8958 44.1667 44.1667 47.8958 44.1667 52.5C44.1667 57.1042 47.8958 60.8333 52.5 60.8333C57.1042 60.8333 60.8333 57.1042 60.8333 52.5C60.8333 47.8958 57.1042 44.1667 52.5 44.1667ZM51.9587 77.4958C32.8878 77.4958 21.1625 60.7458 18.9208 56.2625C17.725 53.875 17.725 51.1375 18.9208 48.7417C21.1583 44.2542 33.4208 27.5 52.5 27.5C71.5792 27.5 83.8417 44.2542 86.0792 48.7417C87.2667 51.125 87.2667 53.8625 86.0792 56.25C83.8375 60.7417 71.575 77.4958 52.4958 77.4958H51.9587Z" stroke="url(#paint0_linear_1166_32723)" stroke-width="5" stroke-linecap="round"/>
<defs>
<linearGradient id="paint0_linear_1166_32723" x1="52.5" y1="2.5" x2="52.5" y2="102.5" gradientUnits="userSpaceOnUse">
<stop stop-color="#E31E26"/>
<stop offset="1" stop-color="#F4F4F4"/>
</linearGradient>
</defs>
</svg>
